<svg id="mochila" xmlns="http://www.w3.org/2000/svg" width="23" height="23" viewBox="0 0 23 23">
  <path id="Caminho_70" data-name="Caminho 70" d="M24.1,13.837a1.938,1.938,0,0,0-1.826-1.994c-.122,0-.166-.06-.166-.179V10.129a7.7,7.7,0,0,0-.952-3.639.732.732,0,0,1-.089-.369V.887a.741.741,0,0,0-.248-.664A.935.935,0,0,0,20.082,0H17.868a1.053,1.053,0,0,0-.827.252.835.835,0,0,0-.28.745c0,.488,0,1,0,1.505-.266-.1-.509-.2-.753-.279a.194.194,0,0,1-.114-.092.163.163,0,0,1-.008-.137V1a.952.952,0,0,0-.344-.723A1.18,1.18,0,0,0,14.725,0H10.5a1.176,1.176,0,0,0-.844.294.944.944,0,0,0-.318.763v.937c0,.07,0,.15-.089.189l-.819.3V.877A.741.741,0,0,0,8.184.233.931.931,0,0,0,7.475,0H5.162A.937.937,0,0,0,4.4.217.741.741,0,0,0,4.154.9V6.131a.7.7,0,0,1-.089.359,7.768,7.768,0,0,0-.863,2.9,21.661,21.661,0,0,0,0,2.243c0,.16-.066.209-.232.229A1.941,1.941,0,0,0,1.2,13.688c0,.628,0,1.256,0,1.874a.314.314,0,0,0,.07.255.386.386,0,0,0,.251.134c.31,0,.421-.13.421-.409V13.688a1.214,1.214,0,0,1,1.107-1.146.563.563,0,0,1,.31,0H21.908a1.448,1.448,0,0,1,1.059.36,1.159,1.159,0,0,1,.391.956q0,3.529,0,7.058a1.217,1.217,0,0,1-.421,1.022,1.524,1.524,0,0,1-1.14.364H3.379a1.553,1.553,0,0,1-1.1-.381,1.249,1.249,0,0,1-.431-.985V17.247c0-.3-.077-.389-.387-.449a.382.382,0,0,0-.273.117.306.306,0,0,0-.082.262c0,1.326,0,2.652,0,3.988A1.917,1.917,0,0,0,2.594,22.91a.239.239,0,0,1,.221.08H22.3A1.93,1.93,0,0,0,24.067,21C24.111,18.553,24.111,16.2,24.1,13.837ZM17.758.678h2.358c.144,0,.2,0,.2.189V5.194l-.852-.917a10.543,10.543,0,0,0-1.871-1.286.174.174,0,0,1,0-.219V.9C17.592.748,17.592.678,17.758.678Zm-7.671.369A.32.32,0,0,1,10.192.78a.4.4,0,0,1,.293-.1h4.239a.391.391,0,0,1,.3.091.311.311,0,0,1,.109.268c0,.249,0,.5,0,.738s0,.2-.2.15a10.255,10.255,0,0,0-2.7-.259,10.808,10.808,0,0,0-2.147.329c0-.349-.011-.648,0-.947ZM5.206.678h2.28c.144,0,.2.06.2.179V2.791a.186.186,0,0,1-.055.2l-.775.479a9.739,9.739,0,0,0-1.915,1.7c-.066-.06,0-.13,0-.179V.947C4.9.728,4.973.668,5.206.678Zm15.95,11.156H4.143c-.221,0-.3,0-.288-.249a17.154,17.154,0,0,1,.1-2.5A7.841,7.841,0,0,1,8.56,3.24a9.3,9.3,0,0,1,5.711-.768h.144a7.89,7.89,0,0,1,2.767,1,7.624,7.624,0,0,1,4.184,6.66q0,.748,0,1.5C21.366,11.8,21.311,11.844,21.156,11.834Z" transform="translate(-1.106 0.011)" fill="#020202"/>
  <path id="Caminho_71" data-name="Caminho 71" d="M4.53,1c0-.22.07-.28.28-.27H6.87c.13,0,.18.06.18.18V2.8A.2.2,0,0,1,7,3l-.7.48A9.18,9.18,0,0,0,4.57,5.19c-.06-.06,0-.13,0-.18C4.54,3.66,4.54,2.31,4.53,1Z" transform="translate(-0.69 0.011)"/>
  <path id="Caminho_72" data-name="Caminho 72" d="M16,.9c0-.15,0-.22.2-.22h2.13c.13,0,.18,0,.18.19V5.21l-.77-.92A9.56,9.56,0,0,0,16,3a.19.19,0,0,1,0-.22Z" transform="translate(0.703 0.011)"/>
  <path id="Caminho_73" data-name="Caminho 73" d="M3.591,11.62a16.757,16.757,0,0,1,.1-2.51A7.9,7.9,0,0,1,8.437,3.25a9.819,9.819,0,0,1,5.884-.77h.148a8.271,8.271,0,0,1,2.851,1,7.63,7.63,0,0,1,4.31,6.68q0,.75,0,1.5c0,.15-.057.19-.217.18H3.888C3.66,11.87,3.58,11.83,3.591,11.62Z" transform="translate(-1.106 0.011)"/>
  <path id="Caminho_74" data-name="Caminho 74" d="M23.44,20.94a1.219,1.219,0,0,1-.423,1.025,1.533,1.533,0,0,1-1.145.365H3.356a1.564,1.564,0,0,1-1.085-.368A1.258,1.258,0,0,1,1.821,21c0-1.23,0-2.46,0-3.7,0-.3-.078-.39-.389-.45a.355.355,0,0,1,.264.019.3.3,0,0,1,.159.191.906.906,0,0,1,.056.42v3.5a1.169,1.169,0,0,0,.422.944A1.463,1.463,0,0,0,3.4,22.26H22.139a1.19,1.19,0,0,0,1.2-1.14V13.77a1.206,1.206,0,0,0-1.257-1.15H3.434a1.792,1.792,0,0,0-.4,0,1.2,1.2,0,0,0-1.112,1.26v1.57a.846.846,0,0,1-.067.37A.314.314,0,0,1,1.676,16a.368.368,0,0,1-.266,0c.311,0,.423-.13.423-.41V13.73a1.218,1.218,0,0,1,1.112-1.15.566.566,0,0,1,.311,0H21.972a1.457,1.457,0,0,1,1.064.361,1.162,1.162,0,0,1,.393.959C23.429,16.22,23.407,18.58,23.44,20.94Z" transform="translate(-1.106 -0.06)"/>
  <path id="Caminho_75" data-name="Caminho 75" d="M22.5,21.05a1.592,1.592,0,0,1-.313.95.912.912,0,0,1-.3.3l-.134.06H3.364a1.576,1.576,0,0,1-1.1-.378A1.251,1.251,0,0,1,1.821,21c0-1.23,0-2.46,0-3.7,0-.3-.078-.39-.391-.45a3.178,3.178,0,0,0,0-.8c.313,0,.425-.13.425-.41V13.78a1.221,1.221,0,0,1,1.118-1.15.811.811,0,0,1,.268,0h18.3a.873.873,0,0,1,.3,0,.651.651,0,0,1,.335.27,1.582,1.582,0,0,1,.324,1Q22.511,17.44,22.5,21.05Z" transform="translate(-1.106 -0.06)" fill="#ace2e5"/>
  <path id="Caminho_76" data-name="Caminho 76" d="M20.688,11.67a.22.22,0,0,1,0,.19H3.89c-.23,0-.31,0-.3-.25a16.631,16.631,0,0,1,.1-2.51,7.919,7.919,0,0,1,4.78-5.85A9.961,9.961,0,0,1,14.4,2.48h.149a8.844,8.844,0,0,1,4.941,3.73,7.161,7.161,0,0,1,1.149,3.16A16.543,16.543,0,0,1,20.688,11.67Z" transform="translate(-1.106 0.011)" fill="#eda86b"/>
  <path id="Caminho_77" data-name="Caminho 77" d="M23.44,20.94a1.215,1.215,0,0,1-.426,1.025,1.553,1.553,0,0,1-1.154.365h-.2l.067-.06a1.873,1.873,0,0,0,.594-1.54q0-3.435,0-6.89a1.576,1.576,0,0,0-.381-1,.592.592,0,0,0-.314-.21.727.727,0,0,0-.213,0H2.82a.575.575,0,0,1,.314,0H21.961a1.475,1.475,0,0,1,1.072.361,1.157,1.157,0,0,1,.4.959C23.429,16.22,23.406,18.58,23.44,20.94Z" transform="translate(-1.106 -0.06)" fill="#ace2e5"/>
  <path id="Caminho_78" data-name="Caminho 78" d="M19.41,11.69c0,.15-.05.19-.19.18h-.8V10.34a8.64,8.64,0,0,0-.76-3.5,8.15,8.15,0,0,0-2-2.69,8,8,0,0,0-2.42-1.53c-.06,0-.12,0-.15-.09a6.69,6.69,0,0,1,2.5,1,7.77,7.77,0,0,1,3.78,6.68C19.42,10.69,19.4,11.19,19.41,11.69Z" transform="translate(1.114 0.011)" fill="#eda86b"/>
  <path id="Caminho_79" data-name="Caminho 79" d="M6.32,3.2a.46.46,0,0,1-.07.26A9.18,9.18,0,0,0,4.57,5.19c-.06-.06,0-.13,0-.18V.95c0-.22.07-.28.28-.27h1.4a.32.32,0,0,1,.07.23Z" transform="translate(-0.704 0.011)" fill="#ea7878"/>
  <path id="Caminho_80" data-name="Caminho 80" d="M17.77,4a.29.29,0,0,1-.08.25A9.56,9.56,0,0,0,16,3a.19.19,0,0,1,0-.22V.9c0-.15,0-.22.2-.22h1.5c.12.06.12.17.12.27Z" transform="translate(0.637 0.011)" fill="#ea7878"/>
  <path id="Caminho_81" data-name="Caminho 81" d="M18.46,5.21l-.77-.92V.88a.32.32,0,0,0-.05-.19h.63c.13,0,.18,0,.18.19Z" transform="translate(0.733 0.011)" fill="#ea7878"/>
  <path id="Caminho_82" data-name="Caminho 82" d="M7.05,2.8A.2.2,0,0,1,7,3l-.7.48V.69h.62c.13,0,.18.06.18.18Z" transform="translate(-0.529 0.011)" fill="#ea7878"/>
  <path id="Caminho_83" data-name="Caminho 83" d="M20.77,17.83c.3.06.391.15.391.42V20a1.362,1.362,0,0,1-.5,1.06,1.812,1.812,0,0,1-1.232.41H5.794a1.8,1.8,0,0,1-1.228-.41A1.351,1.351,0,0,1,4.07,20V14.93a1.345,1.345,0,0,1,.483-1.08,1.8,1.8,0,0,1,1.241-.42H19.414a1.812,1.812,0,0,1,1.248.413,1.359,1.359,0,0,1,.5,1.077c0,.58,0,1.16,0,1.73,0,.27-.092.36-.391.42a.364.364,0,0,1-.261-.025.285.285,0,0,1-.153-.185.8.8,0,0,1,0-.29V15.13a1.272,1.272,0,0,0,0-.36.807.807,0,0,0-.816-.63H6a1.226,1.226,0,0,0-.379,0,.75.75,0,0,0-.7.65,1.5,1.5,0,0,0,0,.32v4.61a2.124,2.124,0,0,0,0,.27.784.784,0,0,0,.655.7,1.319,1.319,0,0,0,.333,0H18.931a4.067,4.067,0,0,0,.6,0,.77.77,0,0,0,.724-.58,1.524,1.524,0,0,0,0-.4V18.32a.8.8,0,0,1,0-.29.285.285,0,0,1,.19-.234.362.362,0,0,1,.327.034Z" transform="translate(-1.106 -0.06)"/>
  <path id="Caminho_84" data-name="Caminho 84" d="M5.4,14.1a.624.624,0,0,1,.3,0H19.361a1.049,1.049,0,0,1,.8.223.745.745,0,0,1,.277.677v1.64c0,.28.07.35.385.42v.79c-.315.07-.385.14-.385.42v1.66a.737.737,0,0,1-.276.659,1.035,1.035,0,0,1-.775.221H5.677a.6.6,0,0,1-.327,0,.7.7,0,0,1,.467-.08H18.766a.439.439,0,0,0,.432-.24.882.882,0,0,0,.117-.45V14.87a.738.738,0,0,0,0-.16c-.07-.4-.234-.53-.7-.53H5.887C5.724,14.18,5.537,14.22,5.4,14.1Z" transform="translate(-1.106 -0.06)" fill="#eda86b"/>
  <path id="Caminho_85" data-name="Caminho 85" d="M11.11,6.28h.78a.73.73,0,0,0,.69.26h1.59a.51.51,0,0,1,.32.06.38.38,0,0,1,.09.31c0,.73,0,1.45,0,2.17,0,.28-.05.33-.33.33H8a.65.65,0,0,1-.2,0c-.12-.06-.12-.17-.12-.27V6.89c0-.25.09-.33.37-.33h2.36A.78.78,0,0,0,11.11,6.28Z" transform="translate(-0.054 -0.012)" fill="#ace2e5"/>
  <path id="Caminho_86" data-name="Caminho 86" d="M14.46,6.62H12.32c-.27,0-.36-.07-.43-.33s.16-.34.42-.34h2.83a.77.77,0,0,1,.81.82V9.23a.77.77,0,0,1-.82.83H7.88a.78.78,0,0,1-.83-.83V6.76a.77.77,0,0,1,.81-.82h2.83c.26,0,.35.08.42.34s-.16.33-.43.33H8c-.19,0-.25.06-.25.25V9.35a.42.42,0,0,0,.22,0h6.29c.24,0,.48-.07.73-.06s.19-.09.19-.22V6.94c0-.18-.07-.26-.25-.26A1,1,0,0,1,14.46,6.62Z" transform="translate(0.005 -0.012)"/>
  <path id="Caminho_87" data-name="Caminho 87" d="M5.5,14.1H18.8c.564,0,.8.21.8.7v5.19a1.191,1.191,0,0,1-.223.63c-.082.14-.235.13-.376.13H5.458a.778.778,0,0,1-.717-.82c0-.87,0-1.74,0-2.6V14.9a.791.791,0,0,1,.764-.8Z" transform="translate(-1.106 -0.06)" fill="#eda86b"/>
  <path id="Caminho_88" data-name="Caminho 88" d="M14.46,6.62h.63c.13,0,.19,0,.19.18V9.21c0,.19-.11.18-.24.18h-.79c.2,0,.27,0,.26-.25V6.92a.4.4,0,0,0-.05-.3Z" transform="translate(0.009 -0.012)" fill="#ace2e5"/>
  <path id="Caminho_89" data-name="Caminho 89" d="M12.644,15.41h6.007a1.168,1.168,0,0,1,.264,0,.363.363,0,0,1,.326.289A.328.328,0,0,1,19,16.04a.576.576,0,0,1-.18,0c-.5,0-.5,0-.5.44v.83a.915.915,0,0,1-.445,1.108,1.4,1.4,0,0,1-1.4,0,.915.915,0,0,1-.445-1.108v-1c0-.34,0-.29-.324-.29H6.4a.4.4,0,0,1-.4-.27.3.3,0,0,1,.124-.251.448.448,0,0,1,.309-.089h6.235Z" transform="translate(-1.106 -0.044)"/>
  <path id="Caminho_90" data-name="Caminho 90" d="M15,16.78v-.32c0-.4.07-.45.48-.38.08,0,.09.05.09.12v1.17a.26.26,0,0,1-.29.29.28.28,0,0,1-.27-.3C15,17.17,15,17,15,16.78Z" transform="translate(0.421 -0.042)" fill="#ace2e5"/>
</svg>
