<svg xmlns="http://www.w3.org/2000/svg" width="200" height="200" viewBox="0 0 200 200">
  <defs>
    <style>
      .a {
        fill: #3dd40b;
      }

      .b {
        fill: #8cea01;
      }
    </style>
  </defs>
  <path class="a" d="M139.67,54.39a40.11,40.11,0,0,1-12.75,28.32C120.54,88.64,111.44,93.3,106,93.32c-.47,0-3.46,0-7.6.14-1.24.05-3.27.12-5.56.3a89.54,89.54,0,0,0-11,1.38,86.12,86.12,0,0,0-28.42,11.3,67.55,67.55,0,0,0-11.19,7.92,49.38,49.38,0,0,0-6.92,7.76c0-.88,0-14.19,0-21l.32-8.5V87.3c-.27-7.88-.24-15.77-.23-27.76,0-2.27,0-5.9,0-10.43A47.2,47.2,0,0,1,52.57,21.37c3.69-2.95,16.3-13,35.25-12.73A57.29,57.29,0,0,1,127,24.8c.8.8,1.44,1.5,1.83,1.93A42.9,42.9,0,0,1,139.67,54.39Z"/>
  <path class="b" d="M117.9,124.49a59.17,59.17,0,0,0-15.65-3.59,59.26,59.26,0,0,1,17,6,67.75,67.75,0,0,1,10.16,7,72.79,72.79,0,0,1,11.16,10.34,60.84,60.84,0,0,1,6.83,9.76,56.69,56.69,0,0,1,5.83,15.07c-2.35.78-17.26,5.57-29.78,2.63a46,46,0,0,1-8.44-2.92,33,33,0,0,1-9.74-6.74c-1.72-1.54-1.73-1.78-6-6.46-4.6-5-6.9-7.57-9.8-10.23-4.12-3.77-6.17-5.65-9.18-7.15a29.84,29.84,0,0,0-15.55-3.18,29.12,29.12,0,0,0-15.1,5.48,23.87,23.87,0,0,0-7.5,9.62,25.44,25.44,0,0,0-2.33,12.06l0,.41a33.77,33.77,0,0,1-4.53-16.74c0-25.1,29-45.45,64.71-45.45s64.72,20.35,64.72,45.45a35.31,35.31,0,0,1-8,21.9,58.94,58.94,0,0,0-6.34-15.33,65.26,65.26,0,0,0-7-9.62,64.61,64.61,0,0,0-12.49-11.34A56.89,56.89,0,0,0,117.9,124.49Z"/>
  <path class="b" d="M142.62,180.11c-11.39,7-26.3,11.25-42.62,11.25-21.13,0-39.89-7.11-51.71-18.11h0a36.54,36.54,0,0,1-.5-4.12,36.14,36.14,0,0,1,.16-6.74c.17-1.4.4-2.58.58-3.45.55.76,1.31,1.75,2.26,2.87a42.75,42.75,0,0,0,4.83,4.88A61,61,0,0,0,62.44,172a53.33,53.33,0,0,0,10.16,5.46,49.27,49.27,0,0,0,18.15,3.3A48.22,48.22,0,0,1,73.27,176a61.08,61.08,0,0,1-8.83-5.6,73.59,73.59,0,0,1-6.5-5.46,51.69,51.69,0,0,1-4.66-4.88,43.49,43.49,0,0,1-3.49-4.88,12.85,12.85,0,0,1,5-7.57,17.61,17.61,0,0,1,10.87-3.2,19.56,19.56,0,0,1,8.83,2.44c1.83,1,2.82,1.81,6.82,5.6,6.24,5.91,9.83,9.48,9.83,9.48,6.36,6.32,6.12,6.17,7,6.89a52.15,52.15,0,0,0,12.11,7.41,53.84,53.84,0,0,0,10,3.21C124.84,180.45,134.05,182.42,142.62,180.11Z"/>
</svg>
