<svg xmlns="http://www.w3.org/2000/svg" width="55.398" height="83.577" viewBox="0 0 55.398 83.577">
  <g id="b-bioreino" transform="translate(0)">
    <path id="Topo" d="M53.957,44.3a19.082,19.082,0,0,1-5.43,13.023,15.738,15.738,0,0,1-9.049,4.761H33.852a34.427,34.427,0,0,0-4.682.63,30.34,30.34,0,0,0-4.918,1.456,28.8,28.8,0,0,0-3.541,1.574,33.052,33.052,0,0,0-3.659,2.125,29.275,29.275,0,0,0-4.761,3.62A21.68,21.68,0,0,0,9.34,75.03V41.9a21.954,21.954,0,0,1,7.318-12.708,22.623,22.623,0,0,1,15.03-5.823,23.607,23.607,0,0,1,16.643,7.4l.787.866A20.735,20.735,0,0,1,53.957,44.3Z" transform="translate(-9.34 -23.37)" fill="#3dd40b"/>
    <path id="FolhaCima" d="M44.437,45.174a23.1,23.1,0,0,0-6.649-1.652,24.355,24.355,0,0,1,7.239,2.754A28.762,28.762,0,0,1,49.355,49.5a33.169,33.169,0,0,1,4.721,4.721,26.2,26.2,0,0,1,2.912,4.446,27.069,27.069,0,0,1,2.479,6.807A24.709,24.709,0,0,1,46.8,66.656a16.761,16.761,0,0,1-3.62-1.18,14.046,14.046,0,0,1-3.934-3.108c-.708-.708-.708-.826-2.557-2.951a55.084,55.084,0,0,0-4.171-4.682,16.563,16.563,0,0,0-3.934-3.266,11.8,11.8,0,0,0-13.063,1.062A11.253,11.253,0,0,0,12.332,56.9a11.8,11.8,0,0,0-.984,5.548h0A16.171,16.171,0,0,1,9.42,54.813C9.42,43.325,21.774,34,36.961,34S64.5,43.325,64.5,54.813a16.6,16.6,0,0,1-3.423,9.994,28.053,28.053,0,0,0-2.675-7A31.476,31.476,0,0,0,55.3,53.672a30.02,30.02,0,0,0-5.312-5.194A24.079,24.079,0,0,0,44.437,45.174Z" transform="translate(-9.105 7.824)" fill="#8cea01"/>
    <path id="FolhaBaixo" d="M51.189,55.426A32.932,32.932,0,0,1,33.012,60.58a31.476,31.476,0,0,1-21.994-8.262h0a4.407,4.407,0,0,0-.236-1.849,17.39,17.39,0,0,1,0-3.108,3.167,3.167,0,0,1,.236-1.574A13.926,13.926,0,0,0,12,47.124a19.945,19.945,0,0,0,2.046,2.2,28.252,28.252,0,0,0,2.912,2.439,21.915,21.915,0,0,0,4.328,2.479,19.318,19.318,0,0,0,7.869,1.534,19.672,19.672,0,0,1-7.436-2.164,26.241,26.241,0,0,1-3.934-2.557,29.157,29.157,0,0,1-2.793-2.518,24.349,24.349,0,0,1-1.967-2.2,21.917,21.917,0,0,1-1.5-2.243,5.666,5.666,0,0,1,2.125-3.462,6.925,6.925,0,0,1,4.6-1.456,8.1,8.1,0,0,1,3.934,1.1A12.984,12.984,0,0,1,25.1,42.835l4.171,4.328a38.051,38.051,0,0,0,2.99,3.148,21.955,21.955,0,0,0,5.154,3.423,22.507,22.507,0,0,0,4.249,1.456,19.672,19.672,0,0,0,9.521.236Z" transform="translate(-5.313 22.989)" fill="#8cea01"/>
  </g>
</svg>
