<svg xmlns="http://www.w3.org/2000/svg" width="53.69" height="21.242" viewBox="0 0 53.69 21.242">
  <g id="ico" transform="translate(0.04)">
    <path id="Topo" d="M20.68,28.69A4.85,4.85,0,0,1,19.3,32,4,4,0,0,1,17,33.21H15.57a8.75,8.75,0,0,0-1.19.16,7.711,7.711,0,0,0-1.25.37,7.319,7.319,0,0,0-.9.4,8.4,8.4,0,0,0-.93.54,7.44,7.44,0,0,0-1.21.92,5.51,5.51,0,0,0-.75.9V28.08a5.58,5.58,0,0,1,1.86-3.23,5.75,5.75,0,0,1,3.82-1.48,6,6,0,0,1,4.23,1.88l.2.22a5.27,5.27,0,0,1,1.23,3.22Z" transform="translate(-9.38 -23.37)" fill="#3dd40b"/>
    <path id="FolhaCima" d="M18.32,36.84a5.87,5.87,0,0,0-1.69-.42,6.19,6.19,0,0,1,1.84.7,7.31,7.31,0,0,1,1.1.82,8.43,8.43,0,0,1,1.2,1.2,6.66,6.66,0,0,1,.74,1.13A6.88,6.88,0,0,1,22.14,42a6.28,6.28,0,0,1-3.22.3A4.26,4.26,0,0,1,18,42a3.57,3.57,0,0,1-1-.79c-.18-.18-.18-.21-.65-.75a14,14,0,0,0-1.06-1.19,4.21,4.21,0,0,0-1-.83,3,3,0,0,0-3.32.27,2.86,2.86,0,0,0-.81,1.11,3,3,0,0,0-.25,1.41h0a4.11,4.11,0,0,1-.49-1.94c0-2.92,3.14-5.29,7-5.29s7,2.37,7,5.29a4.22,4.22,0,0,1-.87,2.54,7.13,7.13,0,0,0-.68-1.78A8,8,0,0,0,21.08,39a7.63,7.63,0,0,0-1.35-1.32A6.12,6.12,0,0,0,18.32,36.84Z" transform="translate(-9.38 -23.37)" fill="#8cea01"/>
    <path id="FolhaBaixo" d="M21,43.3a8.37,8.37,0,0,1-4.62,1.31,8,8,0,0,1-5.59-2.1h0a1.12,1.12,0,0,0-.06-.47,4.42,4.42,0,0,1,0-.79.805.805,0,0,1,.06-.4,3.54,3.54,0,0,0,.25.34,5.069,5.069,0,0,0,.52.56,7.18,7.18,0,0,0,.74.62,5.57,5.57,0,0,0,1.1.63,4.91,4.91,0,0,0,2,.39,5,5,0,0,1-1.89-.55,6.67,6.67,0,0,1-1-.65,7.411,7.411,0,0,1-.71-.64,6.189,6.189,0,0,1-.5-.56,5.57,5.57,0,0,1-.38-.57,1.44,1.44,0,0,1,.54-.88,1.76,1.76,0,0,1,1.17-.37,2.06,2.06,0,0,1,1,.28,3.3,3.3,0,0,1,.74.65l1.06,1.1a9.671,9.671,0,0,0,.76.8,5.58,5.58,0,0,0,1.31.87,5.72,5.72,0,0,0,1.08.37A5,5,0,0,0,21,43.3Z" transform="translate(-9.38 -23.37)" fill="#8cea01"/>
    <text id="BIOREINO" transform="translate(14.65 11.01)" fill="#3dd40b" font-size="8" font-family="SegoeUI-Bold, Segoe UI" font-weight="700" opacity="0.99"><tspan x="0" y="0">BIOREINO</tspan></text>
    <text id="cursos_de_biologia" data-name="cursos de biologia" transform="translate(15.29 15.78)" fill="#8cea01" font-size="4" font-family="SegoeUI-Semibold, Segoe UI" font-weight="600"><tspan x="0" y="0">cu</tspan><tspan y="0" letter-spacing="0.009em">r</tspan><tspan y="0">sos de biologia</tspan></text>
  </g>
</svg>
