<svg xmlns="http://www.w3.org/2000/svg" width="713.42" height="200" viewBox="0 0 713.42 200">
  <defs>
    <style>
      .a {
        fill: #3dd40b;
      }

      .b {
        fill: #8cea01;
      }

      .c {
        opacity: 0.99;
      }
    </style>
  </defs>
  <path class="a" d="M124.83,54.39a40.16,40.16,0,0,1-12.75,28.32C105.69,88.64,96.6,93.3,91.19,93.32c-.48,0-3.47,0-7.61.14-1.23.05-3.26.12-5.56.3a89.78,89.78,0,0,0-11,1.38,86.43,86.43,0,0,0-28.42,11.3,68,68,0,0,0-11.19,7.92,49.4,49.4,0,0,0-6.91,7.76c0-.88,0-14.19,0-21l.31-8.5V87.3c-.26-7.88-.23-15.77-.23-27.76,0-2.27,0-5.9,0-10.43A47.26,47.26,0,0,1,37.72,21.37C41.41,18.42,54,8.39,73,8.64A57.23,57.23,0,0,1,112.13,24.8c.8.8,1.45,1.5,1.83,1.93A42.94,42.94,0,0,1,124.83,54.39Z"/>
  <path class="b" d="M103.06,124.49A59.23,59.23,0,0,0,87.4,120.9a59.46,59.46,0,0,1,17,6,67.75,67.75,0,0,1,10.16,7,73.25,73.25,0,0,1,11.16,10.34,60.84,60.84,0,0,1,6.83,9.76,56.72,56.72,0,0,1,5.82,15.07c-2.35.78-17.25,5.57-29.78,2.63a46.36,46.36,0,0,1-8.44-2.92,33.29,33.29,0,0,1-9.74-6.74c-1.71-1.54-1.73-1.78-6-6.46-4.59-5-6.89-7.57-9.8-10.23-4.11-3.77-6.16-5.65-9.18-7.15a29.77,29.77,0,0,0-15.54-3.18,29.14,29.14,0,0,0-15.11,5.48,23.92,23.92,0,0,0-7.49,9.62A25.32,25.32,0,0,0,25,162.24c0,.14,0,.28,0,.41a33.88,33.88,0,0,1-4.53-16.74c0-25.1,29-45.45,64.72-45.45s64.71,20.35,64.71,45.45a35.25,35.25,0,0,1-8,21.9,58.59,58.59,0,0,0-6.34-15.33,65.72,65.72,0,0,0-7-9.62A64.44,64.44,0,0,0,116,131.52,56.56,56.56,0,0,0,103.06,124.49Z"/>
  <path class="b" d="M127.77,180.11c-11.38,7-26.29,11.25-42.61,11.25-21.13,0-39.9-7.11-51.71-18.11h0a36.54,36.54,0,0,1-.5-4.12,36.14,36.14,0,0,1,.16-6.74c.17-1.4.39-2.58.58-3.45.55.76,1.3,1.75,2.25,2.87a44.74,44.74,0,0,0,4.83,4.88A61.28,61.28,0,0,0,47.6,172a52.69,52.69,0,0,0,10.16,5.46,49.18,49.18,0,0,0,18.15,3.3A48.29,48.29,0,0,1,58.42,176a61.43,61.43,0,0,1-8.82-5.6A70.67,70.67,0,0,1,43.1,165a51.69,51.69,0,0,1-4.66-4.88,45.13,45.13,0,0,1-3.5-4.88,12.89,12.89,0,0,1,5-7.57,17.57,17.57,0,0,1,10.86-3.2,19.48,19.48,0,0,1,8.83,2.44c1.84,1,2.83,1.81,6.83,5.6,6.24,5.91,9.82,9.48,9.82,9.48,6.37,6.32,6.13,6.17,7,6.89a52.15,52.15,0,0,0,12.11,7.41,53.61,53.61,0,0,0,10,3.21C110,180.45,119.21,182.42,127.77,180.11Z"/>
  <g class="c">
    <path class="a" d="M177.13,115.28V22.85h33.64q15.47,0,23.78,5.68a18.23,18.23,0,0,1,8.32,16,18.9,18.9,0,0,1-5.06,13.08,26.6,26.6,0,0,1-12.92,7.8v.26q9.86,1.23,15.75,7.28a20.34,20.34,0,0,1,5.9,14.76q0,12.7-9.09,20.15t-24.81,7.44Zm20.81-77.09V60.11h9.16q6.43,0,10.15-3.13a10.64,10.64,0,0,0,3.7-8.6q0-10.18-15.21-10.19Zm0,37.39V99.94h11.28q7.23,0,11.32-3.35a11.22,11.22,0,0,0,4.09-9.15,10.45,10.45,0,0,0-4-8.7q-4-3.17-11.25-3.16Z"/>
    <path class="a" d="M276.63,115.28H259.75V40.36h16.88Z"/>
    <path class="a" d="M325.32,116.59q-16.1,0-26.23-10.48T289,78.81q0-17.76,10.29-28.73t27.27-11q16,0,25.94,10.5t9.9,27.69q0,17.65-10.26,28.47T325.32,116.59Zm.73-63a17,17,0,0,0-14.11,6.66q-5.22,6.66-5.22,17.63,0,11.13,5.22,17.61A16.75,16.75,0,0,0,325.63,102q8.73,0,13.85-6.3t5.12-17.47q0-11.65-5-18.13A16.19,16.19,0,0,0,326.05,53.63Z"/>
    <path class="a" d="M437.65,115.28H418.27L406.62,96c-.88-1.46-1.71-2.77-2.51-3.92a21.61,21.61,0,0,0-2.43-3,9.72,9.72,0,0,0-2.56-1.88,6.46,6.46,0,0,0-2.9-.65h-4.55v28.68H374.8V40.36h26.75q27.27,0,27.27,20.38a21.09,21.09,0,0,1-1.2,7.23,20.08,20.08,0,0,1-3.4,6,21.46,21.46,0,0,1-5.3,4.6,27.24,27.24,0,0,1-6.92,3v.21a11,11,0,0,1,3.24,1.7,23.9,23.9,0,0,1,3,2.74,40.59,40.59,0,0,1,2.79,3.37c.89,1.2,1.7,2.38,2.43,3.53ZM391.67,53V73.85H399a12.11,12.11,0,0,0,8.72-3.14,10.44,10.44,0,0,0,3.35-7.88q0-9.82-11.76-9.83Z"/>
    <path class="a" d="M489.58,115.28H444.65V40.36h43.21V54.1H461.53V70.77H486V84.46h-24.5v17.13h28.05Z"/>
    <path class="a" d="M518.47,115.28H501.6V40.36h16.87Z"/>
    <path class="a" d="M602.9,115.28h-17L555,68.21A69.22,69.22,0,0,1,551.23,62H551q.42,4,.42,12.12v41.17H535.51V40.36h18.18L583.42,86c1.35,2.06,2.61,4.09,3.76,6.11h.21A79.66,79.66,0,0,1,587,81.79V40.36H602.9Z"/>
    <path class="a" d="M651.7,116.59q-16.1,0-26.23-10.48t-10.13-27.3q0-17.76,10.29-28.73t27.27-11q16.05,0,25.94,10.5t9.9,27.69q0,17.65-10.26,28.47T651.7,116.59Zm.73-63a17,17,0,0,0-14.1,6.66Q633.1,67,633.1,77.92q0,11.13,5.23,17.61A16.72,16.72,0,0,0,652,102q8.73,0,13.85-6.3T671,78.24q0-11.65-5-18.13A16.19,16.19,0,0,0,652.43,53.63Z"/>
  </g>
  <g>
    <path class="b" d="M201,176a17.86,17.86,0,0,1-8.92,2.12q-7,0-11.28-4.25a14.82,14.82,0,0,1-4.29-11q0-7.53,4.61-12.12t12.34-4.57a18.52,18.52,0,0,1,7.57,1.46v6.44a11.7,11.7,0,0,0-7-2.39,9.83,9.83,0,0,0-7.38,3,10.69,10.69,0,0,0-2.88,7.77,10.16,10.16,0,0,0,2.71,7.48,9.76,9.76,0,0,0,7.28,2.74A11.56,11.56,0,0,0,201,170Z"/>
    <path class="b" d="M235.39,177.42h-7.11v-4.83h-.12a10.29,10.29,0,0,1-9.62,5.54q-11.13,0-11.13-13V146.88h7.11v17.54q0,8.22,6.53,8.22a6.67,6.67,0,0,0,5.19-2.26,8.53,8.53,0,0,0,2-5.93V146.88h7.11Z"/>
    <path class="b" d="M262.85,153.47a6.07,6.07,0,0,0-3.71-1,6.38,6.38,0,0,0-5.27,2.77,12.18,12.18,0,0,0-2.12,7.55v14.61h-7.11V146.88h7.11v6.29h.13a10.57,10.57,0,0,1,3.2-5,7.35,7.35,0,0,1,4.82-1.8,6.28,6.28,0,0,1,3,.56Z"/>
    <path class="b" d="M266.31,176.46v-6.41A14.41,14.41,0,0,0,275.1,173q6.43,0,6.44-3.69a2.86,2.86,0,0,0-.55-1.78,5.31,5.31,0,0,0-1.49-1.3,12.56,12.56,0,0,0-2.2-1l-2.84-1a31.79,31.79,0,0,1-3.48-1.58,10.4,10.4,0,0,1-2.57-1.9,7,7,0,0,1-1.55-2.4,8.56,8.56,0,0,1-.52-3.13,7.12,7.12,0,0,1,1.07-3.89,9.27,9.27,0,0,1,2.88-2.83,14.05,14.05,0,0,1,4.11-1.73,19.13,19.13,0,0,1,4.75-.58,22.19,22.19,0,0,1,7.78,1.28v6.05a13.37,13.37,0,0,0-7.6-2.2,10.59,10.59,0,0,0-2.43.26,6.34,6.34,0,0,0-1.86.75,3.65,3.65,0,0,0-1.19,1.15,2.63,2.63,0,0,0-.43,1.47,3,3,0,0,0,.43,1.67,3.8,3.8,0,0,0,1.27,1.21,11.21,11.21,0,0,0,2,1c.79.28,1.69.6,2.71.93,1.35.54,2.56,1.09,3.64,1.64a12.39,12.39,0,0,1,2.74,1.9,7.51,7.51,0,0,1,1.75,2.44,8.31,8.31,0,0,1,.61,3.3,7.32,7.32,0,0,1-1.11,4.05,8.85,8.85,0,0,1-2.94,2.86,13.89,13.89,0,0,1-4.24,1.69,22.58,22.58,0,0,1-5.07.55A21.91,21.91,0,0,1,266.31,176.46Z"/>
    <path class="b" d="M309.24,178.13q-7.26,0-11.6-4.28t-4.33-11.34q0-7.69,4.52-12T310,146.17q7.35,0,11.46,4.2t4.1,11.66q0,7.31-4.42,11.7C318.19,176.67,314.23,178.13,309.24,178.13Zm.34-26.45a8.21,8.21,0,0,0-6.59,2.84q-2.42,2.83-2.42,7.81a11,11,0,0,0,2.45,7.56,8.32,8.32,0,0,0,6.56,2.75,7.9,7.9,0,0,0,6.45-2.71q2.25-2.72,2.25-7.72T316,154.43A7.87,7.87,0,0,0,309.58,151.68Z"/>
    <path class="b" d="M330.84,176.46v-6.41a14.44,14.44,0,0,0,8.8,2.95q6.44,0,6.44-3.69a2.86,2.86,0,0,0-.56-1.78,5.26,5.26,0,0,0-1.48-1.3,12.68,12.68,0,0,0-2.21-1l-2.83-1a31.79,31.79,0,0,1-3.48-1.58,10.66,10.66,0,0,1-2.58-1.9,7,7,0,0,1-1.54-2.4,8.56,8.56,0,0,1-.52-3.13,7,7,0,0,1,1.07-3.89,9.06,9.06,0,0,1,2.88-2.83,13.88,13.88,0,0,1,4.1-1.73,19.25,19.25,0,0,1,4.75-.58,22.29,22.29,0,0,1,7.79,1.28v6.05a13.39,13.39,0,0,0-7.6-2.2,10.74,10.74,0,0,0-2.44.26,6.39,6.39,0,0,0-1.85.75,3.78,3.78,0,0,0-1.2,1.15,2.71,2.71,0,0,0-.43,1.47,3.11,3.11,0,0,0,.43,1.67,3.9,3.9,0,0,0,1.27,1.21,11.32,11.32,0,0,0,2,1c.78.28,1.69.6,2.71.93,1.35.54,2.56,1.09,3.63,1.64a12.16,12.16,0,0,1,2.74,1.9,7.36,7.36,0,0,1,1.75,2.44,8.13,8.13,0,0,1,.61,3.3A7.31,7.31,0,0,1,352,173a9,9,0,0,1-2.94,2.86,14,14,0,0,1-4.25,1.69,22.45,22.45,0,0,1-5.07.55A22,22,0,0,1,330.84,176.46Z"/>
    <path class="b" d="M405.65,177.42h-7.11v-5.19h-.13a11.39,11.39,0,0,1-10.57,5.9,11.56,11.56,0,0,1-9.27-4.1q-3.48-4.09-3.48-11.17,0-7.56,3.85-12.13a12.73,12.73,0,0,1,10.25-4.56q6.35,0,9.22,5h.13V132.21h7.11Zm-7-14v-4a7.68,7.68,0,0,0-2.18-5.52,7.36,7.36,0,0,0-5.54-2.27,7.55,7.55,0,0,0-6.27,2.9c-1.52,1.92-2.28,4.6-2.28,8a11.34,11.34,0,0,0,2.19,7.35,7.2,7.2,0,0,0,5.9,2.69,7.44,7.44,0,0,0,5.91-2.6A9.69,9.69,0,0,0,398.63,163.46Z"/>
    <path class="b" d="M441.5,164H420.11a8.7,8.7,0,0,0,2.68,6.53,10.16,10.16,0,0,0,7,2.29,15.81,15.81,0,0,0,9.23-2.92v5.58q-4.29,2.63-11.34,2.62T416.85,174q-3.94-4.16-3.94-11.7a16,16,0,0,1,4.33-11.61A14.38,14.38,0,0,1,428,146.17q6.44,0,10,4t3.53,11.18Zm-6.86-4.89a8.82,8.82,0,0,0-1.81-5.8,6.13,6.13,0,0,0-4.91-2.07,7,7,0,0,0-5.19,2.17,9.84,9.84,0,0,0-2.62,5.7Z"/>
    <path class="b" d="M472.76,173h-.13v4.42h-7.11V132.21h7.11v20h.13a11.7,11.7,0,0,1,10.66-6.08,11.35,11.35,0,0,1,9.3,4.1q3.36,4.09,3.35,11,0,7.65-3.76,12.26a12.59,12.59,0,0,1-10.3,4.61A10.15,10.15,0,0,1,472.76,173Zm-.19-12.13v3.78a8,8,0,0,0,2.19,5.67,7.89,7.89,0,0,0,11.77-.67q2.25-3,2.25-8.36a10.79,10.79,0,0,0-2.1-7.06,7,7,0,0,0-5.68-2.55,7.75,7.75,0,0,0-6.11,2.63A9.52,9.52,0,0,0,472.57,160.87Z"/>
    <path class="b" d="M506.92,140.47a4.29,4.29,0,0,1-3-1.1,3.59,3.59,0,0,1-1.25-2.8,3.69,3.69,0,0,1,1.25-2.84,4.27,4.27,0,0,1,3-1.13,4.44,4.44,0,0,1,3.07,1.13,3.69,3.69,0,0,1,1.25,2.84,3.64,3.64,0,0,1-1.25,2.76A4.41,4.41,0,0,1,506.92,140.47Zm3.53,36.95h-7.11V146.88h7.11Z"/>
    <path class="b" d="M533.64,178.13q-7.26,0-11.59-4.28t-4.34-11.34q0-7.69,4.52-12t12.18-4.32q7.35,0,11.46,4.2T550,162q0,7.31-4.43,11.7T533.64,178.13Zm.34-26.45a8.22,8.22,0,0,0-6.59,2.84q-2.42,2.83-2.42,7.81a11,11,0,0,0,2.45,7.56,8.34,8.34,0,0,0,6.56,2.75,7.9,7.9,0,0,0,6.45-2.71q2.25-2.72,2.25-7.72t-2.25-7.78A7.87,7.87,0,0,0,534,151.68Z"/>
    <path class="b" d="M564.35,177.42h-7.14V132.21h7.14Z"/>
    <path class="b" d="M587.52,178.13q-7.28,0-11.6-4.28t-4.34-11.34q0-7.69,4.52-12t12.18-4.32c4.91,0,8.72,1.4,11.46,4.2s4.11,6.69,4.11,11.66-1.48,8.77-4.43,11.7S592.5,178.13,587.52,178.13Zm.33-26.45a8.22,8.22,0,0,0-6.59,2.84q-2.41,2.83-2.42,7.81a11,11,0,0,0,2.46,7.56,8.32,8.32,0,0,0,6.55,2.75,7.9,7.9,0,0,0,6.45-2.71q2.26-2.72,2.26-7.72t-2.26-7.78A7.87,7.87,0,0,0,587.85,151.68Z"/>
    <path class="b" d="M639.64,175q0,16.82-17.37,16.82a26.53,26.53,0,0,1-10.7-2v-6.32a20.16,20.16,0,0,0,9.78,2.86q11.17,0,11.18-10.7v-3.34h-.12a12.53,12.53,0,0,1-19.84,1.77q-3.51-4.06-3.51-10.93,0-7.77,3.77-12.37a12.67,12.67,0,0,1,10.36-4.59,10,10,0,0,1,9.22,5h.12v-4.24h7.11Zm-7-11.54v-4A7.69,7.69,0,0,0,630.4,154a7.27,7.27,0,0,0-5.47-2.28,7.62,7.62,0,0,0-6.33,2.91q-2.28,2.91-2.28,8.13a11.09,11.09,0,0,0,2.19,7.2,7.11,7.11,0,0,0,5.81,2.7,7.62,7.62,0,0,0,6-2.58A9.52,9.52,0,0,0,632.59,163.43Z"/>
    <path class="b" d="M652.48,140.47a4.34,4.34,0,0,1-3-1.1,3.61,3.61,0,0,1-1.24-2.8,3.71,3.71,0,0,1,1.24-2.84,4.32,4.32,0,0,1,3-1.13,4.4,4.4,0,0,1,3.06,1.13,3.66,3.66,0,0,1,1.26,2.84,3.62,3.62,0,0,1-1.26,2.76A4.36,4.36,0,0,1,652.48,140.47ZM656,177.42h-7.1V146.88H656Z"/>
    <path class="b" d="M689.38,177.42h-6.9v-4.78h-.12a10.43,10.43,0,0,1-9.53,5.49,10.21,10.21,0,0,1-7.25-2.44,8.43,8.43,0,0,1-2.62-6.47q0-8.66,10.24-10.08l9.31-1.28q0-6.54-6.37-6.53A15.39,15.39,0,0,0,666,155.08V149a22.49,22.49,0,0,1,11.46-2.86q11.88,0,11.89,11.39Zm-6.87-15-6.59.89a10.6,10.6,0,0,0-4.61,1.45,4.17,4.17,0,0,0-1.55,3.71,4,4,0,0,0,1.43,3.18,5.63,5.63,0,0,0,3.81,1.23,7.13,7.13,0,0,0,5.38-2.22,7.75,7.75,0,0,0,2.13-5.59Z"/>
  </g>
  <text/></svg>
