<svg xmlns="http://www.w3.org/2000/svg" width="510" height="200" viewBox="0 0 510 200">
  <defs>
    <style>
      .a, .c {
        fill: #3dd40b;
      }

      .b, .d {
        fill: #8cea01;
      }

      .c {
        opacity: 0.99;
        font-size: 76.69px;
        font-family: SegoeUI-Bold, Segoe UI;
        font-weight: 700;
      }

      .d {
        font-size: 36.47px;
        font-family: SegoeUI-Semibold, Segoe UI;
        font-weight: 600;
      }

      .e {
        letter-spacing: 0.01em;
      }
    </style>
  </defs>
  <path class="a" d="M117.89,54.39a40.16,40.16,0,0,1-12.75,28.32C98.75,88.64,89.66,93.3,84.25,93.32c-.48,0-3.47,0-7.61.14-1.23.05-3.26.12-5.56.3a89.78,89.78,0,0,0-11,1.38,87,87,0,0,0-11.5,3.18,84.93,84.93,0,0,0-8.37,3.45,86.16,86.16,0,0,0-8.55,4.67,67.55,67.55,0,0,0-11.19,7.92,49.4,49.4,0,0,0-6.91,7.76c0-.88,0-14.19,0-21l.31-8.5V87.3c-.27-7.88-.23-15.77-.23-27.76,0-2.27,0-5.9,0-10.43A47.26,47.26,0,0,1,30.78,21.37c3.69-2.95,16.3-13,35.26-12.73A57.23,57.23,0,0,1,105.19,24.8c.8.8,1.44,1.5,1.83,1.93A42.94,42.94,0,0,1,117.89,54.39Z"/>
  <path class="b" d="M96.11,124.49a59.17,59.17,0,0,0-15.65-3.59,59.46,59.46,0,0,1,17,6,67.66,67.66,0,0,1,10.15,7,72.33,72.33,0,0,1,11.16,10.34,60.2,60.2,0,0,1,6.83,9.76,56.35,56.35,0,0,1,5.83,15.07c-2.35.78-17.26,5.57-29.78,2.63a46.36,46.36,0,0,1-8.44-2.92,33.29,33.29,0,0,1-9.74-6.74c-1.71-1.54-1.73-1.78-6-6.46-4.59-5-6.89-7.57-9.8-10.23-4.11-3.77-6.17-5.65-9.18-7.15a29.8,29.8,0,0,0-15.54-3.18,29.14,29.14,0,0,0-15.11,5.48,23.83,23.83,0,0,0-7.49,9.62A25.2,25.2,0,0,0,18,162.24c0,.14,0,.28,0,.41a33.88,33.88,0,0,1-4.53-16.74c0-25.1,29-45.45,64.71-45.45s64.72,20.35,64.72,45.45a35.25,35.25,0,0,1-8,21.9,58.59,58.59,0,0,0-6.34-15.33,65.26,65.26,0,0,0-7-9.62,64.61,64.61,0,0,0-12.49-11.34A56.45,56.45,0,0,0,96.11,124.49Z"/>
  <path class="b" d="M120.83,180.11c-11.38,7-26.3,11.25-42.62,11.25-21.13,0-39.89-7.11-51.7-18.11h0a36.87,36.87,0,0,1-.51-4.12,35.91,35.91,0,0,1,.17-6.74,34.33,34.33,0,0,1,.58-3.45c.55.76,1.3,1.75,2.25,2.87a44.74,44.74,0,0,0,4.83,4.88A61,61,0,0,0,40.65,172a53.17,53.17,0,0,0,10.17,5.46A49.18,49.18,0,0,0,69,180.76,48.22,48.22,0,0,1,51.48,176a62.26,62.26,0,0,1-8.83-5.6A72.48,72.48,0,0,1,36.16,165a49.27,49.27,0,0,1-4.66-4.88,42.5,42.5,0,0,1-3.5-4.88,12.91,12.91,0,0,1,5-7.57,17.61,17.61,0,0,1,10.87-3.2,19.52,19.52,0,0,1,8.83,2.44c1.83,1,2.83,1.81,6.82,5.6,6.25,5.91,9.83,9.48,9.83,9.48,6.37,6.32,6.13,6.17,7,6.89a52.15,52.15,0,0,0,12.1,7.41,53.65,53.65,0,0,0,10,3.21C103.05,180.45,112.26,182.42,120.83,180.11Z"/>
  <text class="c" transform="translate(136.79 100)">BIOREINO</text>
  <text class="d" transform="translate(161.15 144.43) scale(1.03 1)">cu<tspan class="e" x="38.43" y="0">r</tspan><tspan x="52.16" y="0">sos de biologia</tspan></text>
</svg>
