<svg xmlns="http://www.w3.org/2000/svg" width="670.68" height="182.73" viewBox="0 0 670.68 182.73">
  <defs>
    <style>
      .a {
        fill: #3dd40b;
      }

      .b {
        fill: #8cea01;
      }

      .c {
        opacity: 0.99;
      }
    </style>
  </defs>
  <path class="a" d="M129.67,54.85a40.14,40.14,0,0,1-12.75,28.31C110.53,89.1,101.44,93.76,96,93.78c-.48,0-3.47,0-7.61.14-1.23,0-3.26.12-5.56.3a87.87,87.87,0,0,0-11,1.38,85.29,85.29,0,0,0-11.5,3.18A86.81,86.81,0,0,0,52,102.22a89.16,89.16,0,0,0-8.55,4.68,67.55,67.55,0,0,0-11.19,7.92,49.26,49.26,0,0,0-6.91,7.75c0-.87,0-14.18,0-21l.31-8.5V87.76C25.32,79.88,25.36,72,25.36,60c0-2.28,0-5.9,0-10.43A47.26,47.26,0,0,1,42.56,21.83c3.69-3,16.31-13,35.26-12.73A57.29,57.29,0,0,1,117,25.25c.8.81,1.44,1.51,1.83,1.94A42.94,42.94,0,0,1,129.67,54.85Z" transform="translate(-25.28 -9.1)"/>
  <path class="b" d="M107.89,124.94a60,60,0,0,0-15.65-3.59,59.11,59.11,0,0,1,17,6,67.75,67.75,0,0,1,10.16,7,73.25,73.25,0,0,1,11.16,10.34,60.84,60.84,0,0,1,6.83,9.76,56.72,56.72,0,0,1,5.82,15.07c-2.35.78-17.25,5.56-29.78,2.63A46.36,46.36,0,0,1,105,169.3a33.29,33.29,0,0,1-9.74-6.74c-1.71-1.54-1.73-1.78-6-6.46-4.59-5-6.89-7.57-9.8-10.23-4.11-3.77-6.16-5.65-9.18-7.15a29.77,29.77,0,0,0-15.54-3.18A29,29,0,0,0,39.61,141a23.76,23.76,0,0,0-7.49,9.62,25.32,25.32,0,0,0-2.33,12.06c0,.14,0,.28,0,.41a33.88,33.88,0,0,1-4.53-16.74c0-25.11,29-45.45,64.72-45.45s64.71,20.34,64.71,45.45a35.25,35.25,0,0,1-8,21.9,58.59,58.59,0,0,0-6.34-15.33,65.26,65.26,0,0,0-7-9.62A64.3,64.3,0,0,0,120.88,132,56.79,56.79,0,0,0,107.89,124.94Z" transform="translate(-25.28 -9.1)"/>
  <path class="b" d="M132.61,180.57c-11.38,7-26.29,11.25-42.61,11.25-21.13,0-39.9-7.11-51.71-18.11h0a39.25,39.25,0,0,1-.51-4.11,35.91,35.91,0,0,1,.17-6.74,34.33,34.33,0,0,1,.58-3.45c.55.76,1.3,1.75,2.25,2.87a44.74,44.74,0,0,0,4.83,4.88,61.28,61.28,0,0,0,6.83,5.31,53.26,53.26,0,0,0,10.16,5.46,49.39,49.39,0,0,0,18.15,3.3,48,48,0,0,1-17.49-4.74,59.7,59.7,0,0,1-8.82-5.6,71.71,71.71,0,0,1-6.5-5.45,51.69,51.69,0,0,1-4.66-4.88,43.77,43.77,0,0,1-3.5-4.88,12.86,12.86,0,0,1,5-7.57,17.57,17.57,0,0,1,10.86-3.2,19.48,19.48,0,0,1,8.83,2.44c1.83,1,2.83,1.81,6.82,5.6,6.25,5.91,9.83,9.48,9.83,9.48,6.37,6.32,6.13,6.17,7,6.88a51.94,51.94,0,0,0,12.1,7.42,53.88,53.88,0,0,0,10,3.21C114.83,180.91,124.05,182.88,132.61,180.57Z" transform="translate(-25.28 -9.1)"/>
  <g class="c">
    <path class="a" d="M177.13,112V19.62h33.64q15.47,0,23.78,5.67a18.23,18.23,0,0,1,8.32,16,18.94,18.94,0,0,1-5.06,13.09,26.6,26.6,0,0,1-12.92,7.8v.25q9.86,1.23,15.75,7.29a20.34,20.34,0,0,1,5.9,14.76q0,12.69-9.09,20.14T212.64,112ZM197.94,35V56.87h9.16q6.43,0,10.15-3.13a10.64,10.64,0,0,0,3.7-8.6Q221,35,205.74,35Zm0,37.38V96.7h11.28q7.23,0,11.32-3.35a11.2,11.2,0,0,0,4.09-9.15,10.45,10.45,0,0,0-4-8.7q-4-3.16-11.25-3.16Z" transform="translate(-25.28 -9.1)"/>
    <path class="a" d="M276.63,112H259.75V37.12h16.88Z" transform="translate(-25.28 -9.1)"/>
    <path class="a" d="M325.32,113.35q-16.1,0-26.23-10.48T289,75.58q0-17.78,10.29-28.74t27.27-11q16,0,25.94,10.5t9.9,27.69q0,17.66-10.26,28.47T325.32,113.35Zm.73-63a17,17,0,0,0-14.11,6.66q-5.22,6.66-5.22,17.64,0,11.13,5.22,17.6a16.75,16.75,0,0,0,13.69,6.48q8.73,0,13.85-6.29T344.6,75q0-11.65-5-18.13A16.19,16.19,0,0,0,326.05,50.39Z" transform="translate(-25.28 -9.1)"/>
    <path class="a" d="M437.65,112H418.27L406.62,92.76c-.88-1.46-1.71-2.77-2.51-3.91a21.74,21.74,0,0,0-2.43-3A10,10,0,0,0,399.12,84a6.59,6.59,0,0,0-2.9-.65h-4.55V112H374.8V37.12h26.75q27.27,0,27.27,20.38a21.09,21.09,0,0,1-1.2,7.23,20.13,20.13,0,0,1-3.4,6,21.43,21.43,0,0,1-5.3,4.59,27.24,27.24,0,0,1-6.92,3v.21a11,11,0,0,1,3.24,1.7,24.68,24.68,0,0,1,3,2.74,40.59,40.59,0,0,1,2.79,3.37c.89,1.21,1.7,2.38,2.43,3.53Zm-46-62.27V70.61H399a12.11,12.11,0,0,0,8.72-3.13,10.48,10.48,0,0,0,3.35-7.89q0-9.83-11.76-9.82Z" transform="translate(-25.28 -9.1)"/>
    <path class="a" d="M489.58,112H444.65V37.12h43.21V50.86H461.53V67.53H486V81.22h-24.5V98.35h28.05Z" transform="translate(-25.28 -9.1)"/>
    <path class="a" d="M518.47,112H501.6V37.12h16.87Z" transform="translate(-25.28 -9.1)"/>
    <path class="a" d="M602.9,112h-17L555,65a67.83,67.83,0,0,1-3.76-6.22H551q.42,4,.42,12.12V112H535.51V37.12h18.18l29.73,45.61c1.35,2.06,2.61,4.1,3.76,6.12h.21a80,80,0,0,1-.42-10.3V37.12H602.9Z" transform="translate(-25.28 -9.1)"/>
    <path class="a" d="M651.7,113.35q-16.1,0-26.23-10.48T615.34,75.58q0-17.78,10.29-28.74t27.27-11q16.05,0,25.94,10.5t9.9,27.69q0,17.66-10.26,28.47T651.7,113.35Zm.73-63a17,17,0,0,0-14.1,6.66q-5.24,6.66-5.23,17.64,0,11.13,5.23,17.6A16.72,16.72,0,0,0,652,98.77q8.73,0,13.85-6.29T671,75q0-11.65-5-18.13A16.19,16.19,0,0,0,652.43,50.39Z" transform="translate(-25.28 -9.1)"/>
  </g>
  <g>
    <path class="b" d="M201,169.54a18,18,0,0,1-8.92,2.12q-7,0-11.28-4.25a14.83,14.83,0,0,1-4.29-11q0-7.54,4.61-12.12t12.34-4.58a18.36,18.36,0,0,1,7.57,1.47v6.44a11.7,11.7,0,0,0-7-2.39,9.83,9.83,0,0,0-7.38,3,10.68,10.68,0,0,0-2.88,7.76,10.17,10.17,0,0,0,2.71,7.49,9.76,9.76,0,0,0,7.28,2.74,11.56,11.56,0,0,0,7.23-2.65Z" transform="translate(-25.28 -9.1)"/>
    <path class="b" d="M235.39,170.94h-7.11v-4.83h-.12a10.28,10.28,0,0,1-9.62,5.55q-11.13,0-11.13-13V140.41h7.11v17.53q0,8.24,6.53,8.23a6.67,6.67,0,0,0,5.19-2.26,8.54,8.54,0,0,0,2-5.94V140.41h7.11Z" transform="translate(-25.28 -9.1)"/>
    <path class="b" d="M262.85,147a6,6,0,0,0-3.71-1,6.38,6.38,0,0,0-5.27,2.77,12.15,12.15,0,0,0-2.12,7.54v14.61h-7.11V140.41h7.11v6.29h.13a10.57,10.57,0,0,1,3.2-5,7.31,7.31,0,0,1,4.82-1.81,6.14,6.14,0,0,1,3,.57Z" transform="translate(-25.28 -9.1)"/>
    <path class="b" d="M266.31,170v-6.41a14.41,14.41,0,0,0,8.79,2.95q6.43,0,6.44-3.7a2.85,2.85,0,0,0-.55-1.77,5.31,5.31,0,0,0-1.49-1.3,11.87,11.87,0,0,0-2.2-1l-2.84-1a28.42,28.42,0,0,1-3.48-1.58,10.13,10.13,0,0,1-2.57-1.89,7.07,7.07,0,0,1-1.55-2.4,8.56,8.56,0,0,1-.52-3.13,7.12,7.12,0,0,1,1.07-3.89,9.27,9.27,0,0,1,2.88-2.83,13.79,13.79,0,0,1,4.11-1.73,19.14,19.14,0,0,1,4.75-.59,22,22,0,0,1,7.78,1.29V147a13.38,13.38,0,0,0-7.6-2.21,10,10,0,0,0-2.43.27,6.34,6.34,0,0,0-1.86.75,3.65,3.65,0,0,0-1.19,1.15,2.61,2.61,0,0,0-.43,1.47,3.05,3.05,0,0,0,.43,1.67,3.8,3.8,0,0,0,1.27,1.21,11.22,11.22,0,0,0,2,.95c.79.29,1.69.6,2.71.94,1.35.54,2.56,1.09,3.64,1.64a12.72,12.72,0,0,1,2.74,1.89,7.65,7.65,0,0,1,1.75,2.45,8.22,8.22,0,0,1,.61,3.29,7.33,7.33,0,0,1-1.11,4.06,8.94,8.94,0,0,1-2.94,2.86,13.89,13.89,0,0,1-4.24,1.69,23.17,23.17,0,0,1-5.07.55A21.91,21.91,0,0,1,266.31,170Z" transform="translate(-25.28 -9.1)"/>
    <path class="b" d="M309.24,171.66q-7.26,0-11.6-4.28T293.31,156q0-7.68,4.52-12T310,139.69q7.35,0,11.46,4.21t4.1,11.66q0,7.31-4.42,11.7C318.19,170.19,314.23,171.66,309.24,171.66Zm.34-26.45A8.23,8.23,0,0,0,303,148q-2.42,2.84-2.42,7.82a11,11,0,0,0,2.45,7.55,8.33,8.33,0,0,0,6.56,2.76,7.9,7.9,0,0,0,6.45-2.71q2.25-2.72,2.25-7.72T316,148A7.89,7.89,0,0,0,309.58,145.21Z" transform="translate(-25.28 -9.1)"/>
    <path class="b" d="M330.84,170v-6.41a14.44,14.44,0,0,0,8.8,2.95q6.44,0,6.44-3.7a2.86,2.86,0,0,0-.56-1.77,5.26,5.26,0,0,0-1.48-1.3,12,12,0,0,0-2.21-1l-2.83-1a28.42,28.42,0,0,1-3.48-1.58,10.38,10.38,0,0,1-2.58-1.89,7,7,0,0,1-1.54-2.4,8.56,8.56,0,0,1-.52-3.13,7,7,0,0,1,1.07-3.89,9.06,9.06,0,0,1,2.88-2.83,13.62,13.62,0,0,1,4.1-1.73,19.26,19.26,0,0,1,4.75-.59,22.06,22.06,0,0,1,7.79,1.29V147a13.4,13.4,0,0,0-7.6-2.21,10.18,10.18,0,0,0-2.44.27,6.39,6.39,0,0,0-1.85.75,3.78,3.78,0,0,0-1.2,1.15,2.69,2.69,0,0,0-.43,1.47,3.14,3.14,0,0,0,.43,1.67,3.9,3.9,0,0,0,1.27,1.21,11.33,11.33,0,0,0,2,.95c.78.29,1.69.6,2.71.94,1.35.54,2.56,1.09,3.63,1.64a12.47,12.47,0,0,1,2.74,1.89,7.5,7.5,0,0,1,1.75,2.45,8.05,8.05,0,0,1,.61,3.29,7.32,7.32,0,0,1-1.1,4.06,9.14,9.14,0,0,1-2.94,2.86,14,14,0,0,1-4.25,1.69,23,23,0,0,1-5.07.55A22,22,0,0,1,330.84,170Z" transform="translate(-25.28 -9.1)"/>
    <path class="b" d="M405.65,170.94h-7.11v-5.19h-.13a11.38,11.38,0,0,1-10.57,5.91,11.56,11.56,0,0,1-9.27-4.1q-3.48-4.09-3.48-11.17,0-7.57,3.85-12.13a12.73,12.73,0,0,1,10.25-4.57q6.35,0,9.22,4.95h.13v-18.9h7.11Zm-7-13.95v-4a7.67,7.67,0,0,0-2.18-5.51,7.36,7.36,0,0,0-5.54-2.27,7.57,7.57,0,0,0-6.27,2.89c-1.52,1.93-2.28,4.61-2.28,8a11.32,11.32,0,0,0,2.19,7.35,7.21,7.21,0,0,0,5.9,2.7,7.45,7.45,0,0,0,5.91-2.61A9.67,9.67,0,0,0,398.63,157Z" transform="translate(-25.28 -9.1)"/>
    <path class="b" d="M441.5,157.56H420.11a8.67,8.67,0,0,0,2.68,6.52,10.11,10.11,0,0,0,7,2.3,15.81,15.81,0,0,0,9.23-2.92V169q-4.29,2.63-11.34,2.63t-10.86-4.16q-3.94-4.16-3.94-11.7a16,16,0,0,1,4.33-11.62A14.41,14.41,0,0,1,428,139.69q6.44,0,10,4t3.53,11.18Zm-6.86-4.89a8.82,8.82,0,0,0-1.81-5.8,6.11,6.11,0,0,0-4.91-2.08,7,7,0,0,0-5.19,2.18,9.84,9.84,0,0,0-2.62,5.7Z" transform="translate(-25.28 -9.1)"/>
    <path class="b" d="M472.76,166.53h-.13v4.41h-7.11v-45.2h7.11v20h.13a11.69,11.69,0,0,1,10.66-6.09,11.35,11.35,0,0,1,9.3,4.11q3.36,4.09,3.35,11,0,7.66-3.76,12.27a12.62,12.62,0,0,1-10.3,4.61A10.15,10.15,0,0,1,472.76,166.53Zm-.19-12.14v3.79a8,8,0,0,0,2.19,5.67,7.89,7.89,0,0,0,11.77-.67q2.25-3,2.25-8.37a10.78,10.78,0,0,0-2.1-7.05,7,7,0,0,0-5.68-2.55,7.77,7.77,0,0,0-6.11,2.62A9.53,9.53,0,0,0,472.57,154.39Z" transform="translate(-25.28 -9.1)"/>
    <path class="b" d="M506.92,134a4.34,4.34,0,0,1-3-1.1,3.6,3.6,0,0,1-1.25-2.81,3.68,3.68,0,0,1,1.25-2.83,4.27,4.27,0,0,1,3-1.13,4.44,4.44,0,0,1,3.07,1.13,3.68,3.68,0,0,1,1.25,2.83,3.61,3.61,0,0,1-1.25,2.76A4.37,4.37,0,0,1,506.92,134Zm3.53,36.94h-7.11V140.41h7.11Z" transform="translate(-25.28 -9.1)"/>
    <path class="b" d="M533.64,171.66q-7.26,0-11.59-4.28T517.71,156q0-7.68,4.52-12t12.18-4.33q7.35,0,11.46,4.21T550,155.56q0,7.31-4.43,11.7T533.64,171.66Zm.34-26.45a8.25,8.25,0,0,0-6.59,2.83q-2.42,2.84-2.42,7.82a11,11,0,0,0,2.45,7.55,8.35,8.35,0,0,0,6.56,2.76,7.9,7.9,0,0,0,6.45-2.71q2.25-2.72,2.25-7.72T540.43,148A7.89,7.89,0,0,0,534,145.21Z" transform="translate(-25.28 -9.1)"/>
    <path class="b" d="M564.35,170.94h-7.14v-45.2h7.14Z" transform="translate(-25.28 -9.1)"/>
    <path class="b" d="M587.52,171.66q-7.28,0-11.6-4.28T571.58,156q0-7.68,4.52-12t12.18-4.33c4.91,0,8.72,1.41,11.46,4.21s4.11,6.69,4.11,11.66-1.48,8.77-4.43,11.7S592.5,171.66,587.52,171.66Zm.33-26.45a8.25,8.25,0,0,0-6.59,2.83q-2.41,2.84-2.42,7.82a10.91,10.91,0,0,0,2.46,7.55,8.32,8.32,0,0,0,6.55,2.76,7.9,7.9,0,0,0,6.45-2.71q2.26-2.72,2.26-7.72T594.3,148A7.89,7.89,0,0,0,587.85,145.21Z" transform="translate(-25.28 -9.1)"/>
    <path class="b" d="M639.64,168.5q0,16.81-17.37,16.81a26.53,26.53,0,0,1-10.7-2V177a20.27,20.27,0,0,0,9.78,2.86q11.17,0,11.18-10.71v-3.34h-.12a12.53,12.53,0,0,1-19.84,1.78q-3.51-4.08-3.51-10.93,0-7.78,3.77-12.37a12.68,12.68,0,0,1,10.36-4.6,10,10,0,0,1,9.22,4.95h.12v-4.23h7.11Zm-7-11.54v-4a7.66,7.66,0,0,0-2.19-5.5,7.27,7.27,0,0,0-5.47-2.28,7.62,7.62,0,0,0-6.33,2.91c-1.52,1.94-2.28,4.64-2.28,8.12a11.07,11.07,0,0,0,2.19,7.2,7.11,7.11,0,0,0,5.81,2.7,7.62,7.62,0,0,0,6-2.58A9.52,9.52,0,0,0,632.59,157Z" transform="translate(-25.28 -9.1)"/>
    <path class="b" d="M652.48,134a4.38,4.38,0,0,1-3-1.1,3.62,3.62,0,0,1-1.24-2.81,3.71,3.71,0,0,1,1.24-2.83,4.32,4.32,0,0,1,3-1.13,4.4,4.4,0,0,1,3.06,1.13,3.66,3.66,0,0,1,1.26,2.83,3.59,3.59,0,0,1-1.26,2.76A4.33,4.33,0,0,1,652.48,134ZM656,170.94h-7.1V140.41H656Z" transform="translate(-25.28 -9.1)"/>
    <path class="b" d="M689.38,170.94h-6.9v-4.77h-.12a10.43,10.43,0,0,1-9.53,5.49,10.21,10.21,0,0,1-7.25-2.45,8.41,8.41,0,0,1-2.62-6.47q0-8.64,10.24-10.07l9.31-1.29q0-6.52-6.37-6.53A15.4,15.4,0,0,0,666,148.61v-6.05a22.49,22.49,0,0,1,11.46-2.87q11.88,0,11.89,11.39Zm-6.87-15-6.59.9a10.6,10.6,0,0,0-4.61,1.45,4.17,4.17,0,0,0-1.55,3.71,4,4,0,0,0,1.43,3.17,5.58,5.58,0,0,0,3.81,1.24,7.13,7.13,0,0,0,5.38-2.22,7.76,7.76,0,0,0,2.13-5.59Z" transform="translate(-25.28 -9.1)"/>
  </g>
  <text x="-25.28" y="-9.1"/></svg>
