<svg id="mulher" xmlns="http://www.w3.org/2000/svg" width="439.996" height="439.996" viewBox="0 0 439.996 439.996">
  <path id="Caminho_1" data-name="Caminho 1" d="M141.471,440H1.039C0,440,0,440,0,438.957V1.039C0,0,0,0,1.039,0H438.957C440,0,440,0,440,1.039V438.957c0,.856,0,1.039-1.039,1.039H304.025c-.611-.489-.611-1.222-.794-1.894-.611-2.078-.978-4.217-1.467-6.111a1.772,1.772,0,0,1,0-1.467h1.467A68.8,68.8,0,0,0,313.8,432.6,52.372,52.372,0,0,0,330,431.44a102.174,102.174,0,0,0,20.166-7.394,91.185,91.185,0,0,0,10.389-5.683,31.532,31.532,0,0,0,9.594-8.617,17.172,17.172,0,0,0,2.994-11,3.055,3.055,0,0,0-2.2-2.75,5.073,5.073,0,0,0-2.139-.367,3.85,3.85,0,0,1-2.689-.978,8.005,8.005,0,0,1-1.1-11,13.505,13.505,0,0,1,5.561-4.217,29.761,29.761,0,0,1,11-2.261h12.65a27.13,27.13,0,0,0,3.85,0,4.033,4.033,0,0,0,3.361-2.628,52.549,52.549,0,0,0,3.239-8.983,56.47,56.47,0,0,0,1.406-9.105,58.48,58.48,0,0,0-.55-11.794,11.429,11.429,0,0,0-2.872-6.111,6.111,6.111,0,0,0-4.522-1.956,22.245,22.245,0,0,0-6.111.611,30.555,30.555,0,0,1-7.028.122,10.205,10.205,0,0,1-6.111-2.139,5.378,5.378,0,0,1-2.322-4.705,5.5,5.5,0,0,1,1.406-2.933,13.139,13.139,0,0,1,5.317-3.972A60.322,60.322,0,0,1,393,320.891a37.46,37.46,0,0,0,8.189-3.117,17.477,17.477,0,0,0,8.983-11.55,35.629,35.629,0,0,0,0-15.033c-.55-3.3-1.528-6.539-2.322-9.839a48.22,48.22,0,0,1-1.467-9.289,19.067,19.067,0,0,1,2.383-9.289c.794-1.528,1.528-3.117,2.444-4.583a3.483,3.483,0,0,0,.489-2.2,2.444,2.444,0,0,0-2.811-2.506c-5.072.489-10.083,1.467-15.094,2.444s-10.878,2.383-16.255,3.85-8.922,2.628-13.322,4.217c-2.139.733-2.139.733-2.567-1.528a22.55,22.55,0,0,0-3.056-8.8c-.428-.672-.917-1.283-1.406-1.956a2.872,2.872,0,0,0-3.85-1.039c-1.406.55-2.872.978-4.278,1.467a16.255,16.255,0,0,1-6.111.611,6.111,6.111,0,0,1-3.483-1.161,4.767,4.767,0,0,1-1.589-5.683,13.139,13.139,0,0,1,6.967-7.578,87.6,87.6,0,0,1,9.472-3.85,38.319,38.319,0,0,0,5.011-2.506,4.461,4.461,0,0,0,2.444-4.094,69.423,69.423,0,0,0-2.017-19.433,62.333,62.333,0,0,0-6.111-14.85,3.3,3.3,0,0,0-5.439-1.283,25.48,25.48,0,0,1-4.828,2.811,9.106,9.106,0,0,1-4.217.611,4.217,4.217,0,0,1-2.75-1.344,2.261,2.261,0,0,1,0-3.667,14.972,14.972,0,0,1,4.522-2.75,17.905,17.905,0,0,0,9.594-13.322,38.256,38.256,0,0,0-1.894-19.25c-1.283-4.033-2.933-7.944-4.094-12.222a44.487,44.487,0,0,1-1.467-6.417c-.428-2.811-2.383-3.667-4.95-2.506s-6.783,3.178-10.083,4.95a48.888,48.888,0,0,0-17.661,14.361,29.272,29.272,0,0,0-5.744,13.933,24.444,24.444,0,0,0,0,8.678,25.49,25.49,0,0,1,.489,4.339,3.667,3.667,0,0,1-1.894,3.606,4.461,4.461,0,0,1-4.583-.489,9.289,9.289,0,0,1-3.667-6.111,28.171,28.171,0,0,1-1.039-6.111,32.328,32.328,0,0,0,.855-6.905,26.277,26.277,0,0,0-.611-5.317,37.7,37.7,0,0,1-.55-11.122c0-4.522.733-9.044,1.161-13.567s.672-7.333,1.039-10.939c0-2.506.367-5.072.489-7.578,0-4.217.428-8.433,0-12.65A117.628,117.628,0,0,0,293.7,81.155a59.155,59.155,0,0,0-11.367-24.078,51.271,51.271,0,0,0-15.155-12.65,79.994,79.994,0,0,0-25.911-8.372,108.654,108.654,0,0,0-12.589-1.406,79.444,79.444,0,0,0-29.761,3.85,68.994,68.994,0,0,0-24.139,14.239,81.522,81.522,0,0,0-18.333,24.994,97.227,97.227,0,0,0-8.861,29.089A95.578,95.578,0,0,0,146.6,123.5a35.744,35.744,0,0,1,0,3.606,3.239,3.239,0,0,1-1.589,3.239,40.4,40.4,0,0,1-3.361,2.261c-.978.489-1.406,0-1.344-.856a8.8,8.8,0,0,1,.55-2.444,4.988,4.988,0,0,1,.672-1.711,8.8,8.8,0,0,0-1.406-8.8,39.476,39.476,0,0,0-6.111-6.478,133.526,133.526,0,0,0-11.794-9.961l-4.767-3.117a1.589,1.589,0,0,0-2.567,1.344,22.734,22.734,0,0,0,0,3.544,13.078,13.078,0,0,1-3.056,8.739c-1.406,1.894-2.994,3.728-4.339,5.622a25.116,25.116,0,0,0-3.606,6.661,11.611,11.611,0,0,0,.978,10.328A20.962,20.962,0,0,0,110,140.554a16.866,16.866,0,0,1,4.828,4.706,4.583,4.583,0,0,1,.611,1.222,3.422,3.422,0,0,1-.428,3.789,4.094,4.094,0,0,1-3.911,1.222,16.011,16.011,0,0,1-6.111-3.117,10.938,10.938,0,0,0-2.933-1.711,4.278,4.278,0,0,0-4.461.917,10.328,10.328,0,0,0-1.833,2.2A32.023,32.023,0,0,0,91.3,161.148a31.228,31.228,0,0,0-.367,5.805,2.567,2.567,0,0,0,1.528,2.261c2.017,1.039,4.094,1.956,6.111,2.872a22.55,22.55,0,0,1,7.883,5.133,7.15,7.15,0,0,1,2.017,5.5,4.828,4.828,0,0,1-3.544,4.033,3.483,3.483,0,0,1-2.444-.428,3.239,3.239,0,0,1-2.628-1.956,33.305,33.305,0,0,0-7.455-9.289,44.183,44.183,0,0,0-9.533-6.111,113.847,113.847,0,0,0-19.8-6.539,3.544,3.544,0,0,0-3.972.794,2.75,2.75,0,0,0-.733,2.017,80.422,80.422,0,0,1-1.589,16.683,56.283,56.283,0,0,0-.856,12.222,26.705,26.705,0,0,0,5.744,15.828,18.333,18.333,0,0,0,8.739,5.439,14.666,14.666,0,0,1,4.461,1.711,2.567,2.567,0,0,1,.794,3.728,4.583,4.583,0,0,1-3.422,2.017,11.061,11.061,0,0,1-5.256-.672l-3.85-1.406a2.933,2.933,0,0,0-4.278,1.894,54.328,54.328,0,0,0-2.689,10.755,60.134,60.134,0,0,0-.672,11.489,58.911,58.911,0,0,0,1.406,11.733,19.067,19.067,0,0,0,.55,2.689,4.644,4.644,0,0,0,2.689,2.872,37.7,37.7,0,0,0,6.844,1.833,53.778,53.778,0,0,1,9.9,2.078,13.689,13.689,0,0,1,7.272,6.111,5.194,5.194,0,0,1-1.65,7.028,14.055,14.055,0,0,1-8.005,1.344,44.97,44.97,0,0,1-5.011-.733,2.322,2.322,0,0,0-1.894,0,17.72,17.72,0,0,1-4.033-.367,53.48,53.48,0,0,0-9.9,0H48.766c-6.967.306-13.811,1.1-20.655,2.078-4.339.611-8.617,1.467-12.894,2.261a2.567,2.567,0,0,0-2.322,1.894,2.872,2.872,0,0,0,.794,3.117c1.589,1.406,3.117,2.994,4.706,4.461a17.294,17.294,0,0,1,4.706,8.189,68.629,68.629,0,0,1,1.894,12.711,46.2,46.2,0,0,0,4.278,17.355,20.411,20.411,0,0,0,7.761,8.494,18.823,18.823,0,0,0,6.844,2.139,49.87,49.87,0,0,0,11.122,0,29.026,29.026,0,0,1,10.022,0,10.939,10.939,0,0,1,4.522,2.078,5.194,5.194,0,0,1,.917,7.15,12.711,12.711,0,0,1-7.7,4.889c-2.078.55-4.217.794-6.111,1.161a15.463,15.463,0,0,0-4.644,1.283,7.4,7.4,0,0,0-4.094,6.661,15.339,15.339,0,0,0,.367,4.4,63.555,63.555,0,0,0,3.178,10.389,50.3,50.3,0,0,0,6.905,11.55c1.039,1.344,2.2,2.567,3.3,3.789a4.583,4.583,0,0,0,5.378,1.467c2.506-.794,4.95-1.528,7.394-2.506a76.7,76.7,0,0,1,9.717-3.422,21.938,21.938,0,0,1,11.244,0,9.289,9.289,0,0,1,6.478,5.011,7.578,7.578,0,0,1-.55,7.211,3.911,3.911,0,0,1-2.139,1.711h-.428a3.789,3.789,0,0,0-2.139,5.622,19.739,19.739,0,0,0,11.794,11.061A61.782,61.782,0,0,0,122.1,424.84c4.767.733,9.533.978,14.3,1.283a41.191,41.191,0,0,0,7.272,0c.611,0,1.283,0,1.528.672a30.13,30.13,0,0,1-1.1,5.072,57.745,57.745,0,0,1-2.078,7.028A2.077,2.077,0,0,1,141.471,440Z" fill="none"/>
  <path id="Caminho_2" data-name="Caminho 2" d="M23.15,149.063c.917-2.994,1.894-6.111,2.628-8.983l.917-4.033a16.011,16.011,0,0,1,.978-6.111c.611-3.85,1.406-7.639,2.017-11.428s1.039-6.111,1.467-8.922a50.6,50.6,0,0,0,.733-5.317,15.707,15.707,0,0,1,.489-2.872,57.872,57.872,0,0,1,1.161-7.944,5.256,5.256,0,0,0,0-.978c.367-2.933.733-6.111,1.161-8.8,0-1.894.611-3.667.611-5.561a18.823,18.823,0,0,1,.489-3.239c.428-2.872.306-5.805.917-8.617.306-1.467,0-2.933.489-4.339a3.117,3.117,0,0,1,.428-1.467.55.55,0,0,1,.489,0c.428,0,.856,0,1.1.489a4.155,4.155,0,0,0,1.711,2.567,14.972,14.972,0,0,0,7.15,3.239,43.388,43.388,0,0,1,8.983,3.483c1.467.672,2.933,1.283,4.339,2.017a41.861,41.861,0,0,1,8.433,6.111C74.483,82.331,79.433,86,84.383,89.6c3.544,2.567,6.905,5.378,10.572,7.822a18.333,18.333,0,0,0,19.066,1.467A41.861,41.861,0,0,0,124.227,91.5c3.972-3.789,7.822-7.7,11.855-11.428,2.383-2.261,4.889-4.278,7.333-6.478s3.728-3.361,5.5-5.194,4.156-4.278,6.111-6.478,2.75-1.222,4.217-1.589a50.418,50.418,0,0,0,7.944-2.017c.733,0,1.1-1.039,1.894-1.283h0a41.559,41.559,0,0,1,.978,6.111,9.965,9.965,0,0,0,.489,3.728c.428,3.606,1.039,7.272,1.589,10.939s.978,6.111,1.528,9.594v1.833a4.5,4.5,0,0,0,.428,2.261c.672,3.728,1.161,7.455,1.894,11.122L178,113.5c.733,4.217,1.589,8.372,2.383,12.222v.611c.733,3.667,1.467,7.272,2.261,10.878a3.239,3.239,0,0,1,0,1.711c.367,2.811,1.222,5.561,1.833,8.311l.367,1.406Z" transform="translate(118.321 290.933)" fill="#f6e20c"/>
  <path id="Caminho_3" data-name="Caminho 3" d="M34.325,98.633a88.368,88.368,0,0,1,.856-21.266,92.644,92.644,0,0,1,19.861-45.65A69.238,69.238,0,0,1,97.391,6.845a88.244,88.244,0,0,1,25.055-.672,107.615,107.615,0,0,1,22.794,4.95,55.61,55.61,0,0,1,21.816,13.322,52.616,52.616,0,0,1,12.222,19.372,82.254,82.254,0,0,1,4.705,21.328,170.741,170.741,0,0,1,0,30.555c-.611,8.189-1.65,16.316-2.139,24.444a36.971,36.971,0,0,0,.672,10.694,24.443,24.443,0,0,1,0,11.855,19.555,19.555,0,0,1-2.078,6.111c-1.65,3.667-3.789,7.15-5.561,10.755a31.349,31.349,0,0,0-3.422,10.694,19.555,19.555,0,0,0,.55,6.111,48.889,48.889,0,0,1,1.589,12.589,42.289,42.289,0,0,1-1.344,9.655,3.117,3.117,0,0,1-.428,1.039h-1.467A39.6,39.6,0,0,0,156,195.127h-3.178a8.065,8.065,0,0,1-2.383-.367,34.222,34.222,0,0,1-15.889-11.611,29.333,29.333,0,0,1-5.5-14.055,29.693,29.693,0,0,1,0-4.033,10.39,10.39,0,0,1,0-2.383c0-.489.611-.672,1.039-.794a36.666,36.666,0,0,0,14.605-10.817,75.594,75.594,0,0,0,12.955-22.978,136.706,136.706,0,0,0,6.722-26.583,3.422,3.422,0,0,0-1.1-3.3,130.1,130.1,0,0,1-15.461-17.783,82.866,82.866,0,0,1-8.922-14.361,56.22,56.22,0,0,1-4.278-11.855.733.733,0,0,0,0-.733A11.06,11.06,0,0,0,132.774,55c-3.667,3.422-7.517,6.6-11.489,9.655A117.148,117.148,0,0,1,90.73,82.011a80.483,80.483,0,0,1-19.25,4.644,47.241,47.241,0,0,1-8.8.489,2.689,2.689,0,0,0-2.444,1.1,9.716,9.716,0,0,0-2.017,3.544,14.605,14.605,0,0,0,0,11.55,14.972,14.972,0,0,0,8.311,7.272c2.933,1.161,2.383.306,2.933,3.483a80.422,80.422,0,0,0,8.006,22.367,57.444,57.444,0,0,0,10.45,14.605,42.778,42.778,0,0,0,4.767,4.033,3.178,3.178,0,0,1,1.161,1.039,3.117,3.117,0,0,1-.55,1.833,23.894,23.894,0,0,1-10.083,10.205l-1.039.611A79.442,79.442,0,0,1,63.841,175.2,118.425,118.425,0,0,1,49.3,177.649a4.584,4.584,0,0,0-1.772.367,34.037,34.037,0,0,0-8.005,2.933,51.088,51.088,0,0,0-9.228,6.111c-2.383,1.894-4.522,4.033-6.722,6.111,0,0-.611.978-1.161,0a23.712,23.712,0,0,1,0-6.111c.428-4.767,1.283-9.472,1.833-14.239a37.888,37.888,0,0,0-.794-13.383,22.366,22.366,0,0,1-1.344-6.111,18.334,18.334,0,0,1,.367-4.461,27.012,27.012,0,0,1,2.2-6.111c1.894-4.217,4.094-8.372,5.622-12.711a61.11,61.11,0,0,0,3.483-15.4,48.463,48.463,0,0,0,.428-5.133,12.771,12.771,0,0,1,0-1.528,56.589,56.589,0,0,1,0-7.883,2.994,2.994,0,0,0,.122-1.467Z" transform="translate(112.891 28.538)" fill="#7a2d2d"/>
  <path id="Caminho_4" data-name="Caminho 4" d="M51.639,218.668a34.1,34.1,0,0,1-1.222-5.072c-.55-2.444-1.1-4.95-1.467-7.455a6.111,6.111,0,0,1,.917-3.117c1.283-3.544,2.811-7.028,4.217-10.511s2.444-5.561,3.606-8.372a6.111,6.111,0,0,1,2.506-2.689,78.712,78.712,0,0,1,14.667-6.967,83.3,83.3,0,0,1,17.172-3.85,116.859,116.859,0,0,1,14.605-.367,29.451,29.451,0,0,0,5.683,0,2.1,2.1,0,0,0,2.261-1.467c.061-.672-.978-1.467-2.078-1.772a14.786,14.786,0,0,0-2.811-.367,82.012,82.012,0,0,0-28.355,2.322,85.978,85.978,0,0,0-12.589,4.522c-2.017.978-4.033,1.956-6.111,3.056,0,0-.733.428-1.1,0s0-.794,0-1.161c1.161-2.567,2.444-5.133,3.728-7.7s3.178-6.111,4.828-9.289c2.2-4.156,4.583-8.311,6.967-12.222,1.711-2.994,3.483-6.111,5.317-8.861a3.483,3.483,0,0,1,2.261-1.528A71.8,71.8,0,0,1,95.455,134.4a47.727,47.727,0,0,1,19.005,2.444c2.261.672,4.4,1.589,6.661,2.2a12.224,12.224,0,0,0,2.078.306c.55,0,.672,0,.428-.611a3.666,3.666,0,0,0-1.161-1.405,25.056,25.056,0,0,0-7.578-3.728,52.621,52.621,0,0,0-9.106-1.956,58.181,58.181,0,0,0-11.305,0A45.654,45.654,0,0,0,86.9,132.93H85.8c-.244,0,0-.733,0-1.1,2.383-3.85,4.889-7.578,7.456-11.305,3.3-4.767,6.661-9.533,10.205-14.178s6.783-9.167,10.511-13.505a7.211,7.211,0,0,1,3.055-1.833A79.752,79.752,0,0,1,128.7,86.669a27.866,27.866,0,0,1,18.333,1.161l2.383.917c.55,0,1.283.428,1.65-.306a1.491,1.491,0,0,0-.428-1.772,11.305,11.305,0,0,0-4.889-2.994,31.228,31.228,0,0,0-18.028.306c-2.017.672-4.033,1.467-6.111,2.322h-1.283a.55.55,0,0,1,0-.794c.611-.794,1.161-1.65,1.833-2.383,2.261-2.444,4.339-5.011,6.6-7.517,3.3-3.667,6.6-7.333,9.961-10.939l2.506-2.811c.428-.428.733-.978,0-1.528a1.212,1.212,0,0,0-1.65,0l-3.85,3.606c-2.139,2.139-4.339,4.217-6.111,6.111a34.644,34.644,0,0,1-2.933,3.056c-.794.672-1.1.611-1.406-.428a19.067,19.067,0,0,1-.55-2.689,32.388,32.388,0,0,0-3.361-8.861,16.56,16.56,0,0,0-2.567-2.872h-.611c-.244,0,0,.428,0,.672a14.543,14.543,0,0,0,1.1,4.033,56.526,56.526,0,0,1,3.239,8.617,34.965,34.965,0,0,0,1.039,3.606,1.894,1.894,0,0,1-.489,2.078c-4.95,5.317-9.594,10.817-14.178,16.378-2.872,3.544-5.622,7.15-8.433,10.755a10.208,10.208,0,0,1-.733.978c-.428.428-.672,1.344-1.405,1.1s-.672-1.039-.733-1.589a106.511,106.511,0,0,0-6.539-21.205,19.981,19.981,0,0,0-2.567-4.583l-.733-.794s-.55-.489-.917,0,0,.489,0,.794a12.223,12.223,0,0,0,1.039,4.889c1.1,2.75,2.078,5.5,2.994,8.25,1.406,4.217,2.628,8.433,3.667,12.711a45.231,45.231,0,0,0,1.283,4.95,2.139,2.139,0,0,1-.611,2.017q-3.483,4.889-6.783,9.717c-2.994,4.4-6.111,8.861-8.617,13.322s-4.767,7.883-7.089,11.855c0,.367,0,.856-.856.733s-.367-.611-.367-.978a139.639,139.639,0,0,0-2.75-16.683c-.856-4.033-1.894-7.944-3.056-11.917a10.322,10.322,0,0,1-.489-1.467c0-.978.856-1.772,1.1-2.75a25.546,25.546,0,0,0,.856-7.578,14.725,14.725,0,0,1,0-2.322,27.622,27.622,0,0,0-.733-6.111c-.306-2.383-.917-4.767-1.039-7.15a25.668,25.668,0,0,0-.733-4.522,15.166,15.166,0,0,1,.672-6.111,24.445,24.445,0,0,1,3.3-8.678,28.783,28.783,0,0,1,13.444-11.55c1.344-.55,2.75-1.039,4.156-1.467a3.4,3.4,0,0,1,4.156,1.894,82.2,82.2,0,0,0,6.111,12.222,13.448,13.448,0,0,0,1.283,1.956c.489.733.794.672,1.161,0a14.36,14.36,0,0,0,.917-5.561,16.5,16.5,0,0,1,1.344-6.844,16.256,16.256,0,0,1,6.111-6.661,23.954,23.954,0,0,1,3.422-2.017,1.528,1.528,0,0,0,1.039-1.711c0-.306,0-.672,0-.856v.367c0,1.589,0,1.65,1.772,1.039,3.117-1.161,6.111-2.2,9.594-3.178,4.828-1.406,9.717-2.689,14.667-3.789,3.239-.794,6.539-1.406,9.839-2.017s7.211-1.283,10.878-1.65a2.689,2.689,0,0,1,2.872,1.406,3.85,3.85,0,0,1,0,3.789,30.555,30.555,0,0,0-3.911,8.433,19.739,19.739,0,0,0-.489,8.311,56.583,56.583,0,0,0,1.222,6.111c.55,2.383,1.161,4.767,1.772,7.15a41.5,41.5,0,0,1,1.161,13.689,21.7,21.7,0,0,1-3.85,11,18.333,18.333,0,0,1-6.783,5.561,61.479,61.479,0,0,1-12.65,3.789,17.661,17.661,0,0,0-8.128,3.483,6.906,6.906,0,0,0-3.3,5.378,4.583,4.583,0,0,0,1.589,3.239,9.167,9.167,0,0,0,6.111,2.628,46.262,46.262,0,0,0,10.817-1.222,10.205,10.205,0,0,1,6.722.917,8.372,8.372,0,0,1,3.361,4.4,19.8,19.8,0,0,1,1.283,6.111,58.85,58.85,0,0,1,0,11.367,47.607,47.607,0,0,1-2.872,12.222c-.672,1.65-1.344,3.3-2.2,4.95a3.972,3.972,0,0,1-3.544,1.955c-5.378.489-10.755,0-16.133,0a27.072,27.072,0,0,0-11.367,2.567,10.511,10.511,0,0,0-6.111,7.089,7.822,7.822,0,0,0,3.178,7.761,3.912,3.912,0,0,0,2.017.428,4.217,4.217,0,0,1,4.278,2.322,6.906,6.906,0,0,1,0,4.156,17.049,17.049,0,0,1-4.155,9.655,29.333,29.333,0,0,1-5.683,5.317,71.679,71.679,0,0,1-9.105,5.439c-3.483,1.772-7.15,3.3-10.817,4.889a77.8,77.8,0,0,1-14.667,4.828,66.793,66.793,0,0,1-7.822,1.039,47.672,47.672,0,0,1-11.061-.55,37.641,37.641,0,0,1-8.617-2.383Z" transform="translate(250.186 211.612)" fill="#8cea01"/>
  <path id="Caminho_5" data-name="Caminho 5" d="M141.548,152.875a8.678,8.678,0,0,1-.489,3.3c-.489,2.139,0,4.4-.856,6.478a42.79,42.79,0,0,0-.733,4.767c-.367,2.139-.672,4.278-.978,6.111s-.917,4.828-1.161,7.211a61.967,61.967,0,0,1-1.1,6.111,33.8,33.8,0,0,1-1.467,6.539c-.306.794,0,1.589-.428,2.322,0-.672-.794-.428-1.222-.367a79.446,79.446,0,0,1-12.222,0,72.789,72.789,0,0,1-8.189-.733,62.64,62.64,0,0,1-15.339-3.422,20.472,20.472,0,0,1-11-9.228c-.428-.794-.794-1.65-1.161-2.506a4.033,4.033,0,0,1,2.811-5.622,4.828,4.828,0,0,0,3.239-4.339,8.189,8.189,0,0,0-6.417-9.167,20.41,20.41,0,0,0-9.411,0,63.979,63.979,0,0,0-12.222,3.85,69.557,69.557,0,0,1-7.883,2.506,4.033,4.033,0,0,1-4.217-1.161,50.661,50.661,0,0,1-8.678-11.305,52.25,52.25,0,0,1-5.133-13.383,24.873,24.873,0,0,1-.856-6.111,7.639,7.639,0,0,1,5.378-7.578,38.8,38.8,0,0,1,6.539-1.344,18.7,18.7,0,0,0,9.044-3.3,6.6,6.6,0,0,0,2.811-6.111,4.461,4.461,0,0,0-2.567-3.544,15.217,15.217,0,0,0-8.983-1.405c-4.156,0-8.25.978-12.222.917a21.083,21.083,0,0,1-9.472-2.139,17.661,17.661,0,0,1-5.744-4.889A32.878,32.878,0,0,1,15.11,89.2c-.489-2.811-.672-5.683-.917-8.555a36.667,36.667,0,0,0-3.361-13.75A10.206,10.206,0,0,0,8.816,64.02c-1.833-1.894-3.728-3.789-5.744-5.561A2.994,2.994,0,0,1,2.4,54.915,2.506,2.506,0,0,1,4.66,53.143a14.048,14.048,0,0,0,1.711-.367l9.167-1.589c3.056-.489,6.111-.856,9.228-1.283,6.111-.794,12.222-1.1,18.333-1.406a58.237,58.237,0,0,1,13.444.733h.611A10.327,10.327,0,0,1,62.165,51a13.994,13.994,0,0,1,6.417,7.7,27.315,27.315,0,0,0,2.383,5.072l.611.733s.428.611.794.489.428-.489.489-.794a55,55,0,0,0,1.833-13.444A22.921,22.921,0,0,1,75,47.887a2.444,2.444,0,0,1,2.628-2.628,32.084,32.084,0,0,1,11.55,1.161,30.188,30.188,0,0,1,9.167,4.644,25.91,25.91,0,0,1,6.539,7.333,29.271,29.271,0,0,1,3.667,9.961,31.411,31.411,0,0,1,.428,5.378c0,1.65.856,2.261,2.444,1.772a6.111,6.111,0,0,0,2.017-1.1c.367,0,.672-.856,1.283-.428a3.422,3.422,0,0,1,.489,1.65,55.006,55.006,0,0,0,.672,5.561,37.77,37.77,0,0,0,.672,5.194c.306,1.222,0,2.567.489,3.85a15.461,15.461,0,0,1,.672,3.667c.306,5.622.856,11.244,1.65,16.805.611,4.217,1.406,8.372,2.261,12.222v1.039c0,.244-.733,0-.978,0-3.117-2.811-6.111-5.439-9.594-8.128s-7.15-5.683-10.755-8.433-7.394-5.5-11.122-8.128-2.383-1.344-2.567-4.889-.55-5.561-.733-8.372-.306-3.728-.306-5.622V68.176A18.333,18.333,0,0,0,85.143,65c0-.367,0-.794-.489-.856s-.672.367-.856.733a11.611,11.611,0,0,0-.917,2.811,27.44,27.44,0,0,0-.489,6.111q0,2.292,0,4.583A111.527,111.527,0,0,0,83,93.109h0c0,.55.306,1.222,0,1.589s-1.1,0-1.528-.489L75.365,90.42C69.988,87,64.61,83.576,59.049,80.459c-2.933-1.711-6.111-3.483-8.922-4.95a2.506,2.506,0,0,1-1.65-2.567V66.282a28.415,28.415,0,0,1,0-4.583,21.023,21.023,0,0,0,0-5.194.733.733,0,0,0-.306-.672c-.367,0-.489.306-.611.55a11.183,11.183,0,0,0-1.528,3.972,38.623,38.623,0,0,0,0,10.939,1.711,1.711,0,0,1,0,.55c0,.917,0,1.222-1.161.856S41.693,71.17,40.1,70.437Q33.994,67.5,28.188,64.754c-.611,0-1.222-.367-1.65.306s0,1.222.733,1.528l8.067,4.339c4.156,2.2,8.25,4.522,12.222,6.844,1.956,1.161,3.911,2.383,6.111,3.483l.978.611s.672.367.489.794-.428.306-.733.306H52.327A32.755,32.755,0,0,0,37.171,84.8a23.467,23.467,0,0,0-8.678,5.256A7.455,7.455,0,0,0,26.6,93.109c0,.489-.367.978,0,1.406a1.406,1.406,0,0,0,1.528,0,18.334,18.334,0,0,0,2.383-1.955A28.416,28.416,0,0,1,47.5,85.776a117.812,117.812,0,0,1,13.139,0,2.2,2.2,0,0,1,1.344.428c4.706,2.811,9.289,6.111,13.872,8.922,3.178,2.139,6.417,4.278,9.472,6.539,5.439,3.911,10.939,7.822,16.072,12.222a1.649,1.649,0,0,1,.489.428s.489.428.428.733-.489.428-.794.489l-4.033.55a51.76,51.76,0,0,0-24.016,11,18.333,18.333,0,0,0-4.339,5.072c0,.489-.856,1.222-.306,1.65s1.1,0,1.589-.55a23.9,23.9,0,0,0,4.094-2.933,52.616,52.616,0,0,1,14.422-8.739,65.45,65.45,0,0,1,16.5-4.033,1.955,1.955,0,0,1,1.528.55c3.667,2.933,7.272,6.111,10.878,9.106,5.317,4.583,10.45,9.411,15.522,14.239,1.956,1.833,3.85,3.728,5.744,5.622.489.428,1.283,1.039,1.039,1.65s-1.222,0-1.833,0a81.522,81.522,0,0,0-18.333-.978,69.238,69.238,0,0,0-11.122,1.406,93.742,93.742,0,0,0-18.333,6.111,6.111,6.111,0,0,0-3.3,2.444c-.55.978-.367,1.406.794,1.711a4.767,4.767,0,0,0,2.444,0c2.994-.978,5.806-2.322,8.739-3.3a83.905,83.905,0,0,1,19.8-4.522,72.481,72.481,0,0,1,9.655-.367,47.724,47.724,0,0,1,7.822.672,7.759,7.759,0,0,1,3.3.489C140.876,152.875,141.3,152.264,141.548,152.875Z" transform="translate(10.678 230.777)" fill="#3dd40b"/>
  <path id="Caminho_6" data-name="Caminho 6" d="M124.325,151.1c.428,1.894-.733,2.567-2.261,3.361a16.622,16.622,0,0,0-8.983,10.328,17.171,17.171,0,0,0-.428,4.339,16.929,16.929,0,0,1-.856,5.5,2.619,2.619,0,0,0,0,.306,1.164,1.164,0,0,1-.917,1.039c-.489.061-.55-.489-.733-.794a55,55,0,0,1-5.622-10.389c-.611-1.589-1.283-3.239-2.017-4.828a2.444,2.444,0,0,0-3.239-1.039,31.472,31.472,0,0,0-13.261,7.455A26.522,26.522,0,0,0,78.8,178.234a38.989,38.989,0,0,0-1.039,7.028s0,.55,0,.794a8.372,8.372,0,0,1-.733-2.689q0-.917,0-1.833c0-2.322-1.222-4.461-1.039-6.844a3.178,3.178,0,0,0-.856-2.506c-.428-.611,0-.794.428-.917A23.524,23.524,0,0,0,78,169.8a1.406,1.406,0,0,0,.672-2.2c-.794-1.1-.55-2.506-.794-3.728a66.49,66.49,0,0,0-2.872-9.594,30.556,30.556,0,0,0-2.322-5.439s0-.489,0-.733a41.8,41.8,0,0,1,6.111-5.622,58.3,58.3,0,0,1,10.878-6.661,63.949,63.949,0,0,1,6.111-2.322,19.553,19.553,0,0,0,2.628-1.039,2.078,2.078,0,0,0,.856-2.689,1.344,1.344,0,0,0-2.139-.55,6.415,6.415,0,0,1-1.894,1.039A53.657,53.657,0,0,0,80.2,136.924a62.64,62.64,0,0,0-9.35,7.7h-.367c-.367,0-1.161-1.711-1.711-2.567a5.072,5.072,0,0,1-1.222-2.261,5.622,5.622,0,0,0,.611-2.2c.672-4.95,1.772-9.839,2.811-14.667s1.772-7.761,2.628-11.611a3.484,3.484,0,0,1,1.1-1.711,91.121,91.121,0,0,1,10.511-6.844c3.3-1.956,6.905-3.361,10.328-5.072a6.111,6.111,0,0,0,2.139-1.467c.55-.733.367-1.161-.489-1.222a6.417,6.417,0,0,0-3.239.428,71.254,71.254,0,0,0-12.772,6.783,30.554,30.554,0,0,0-3.972,2.75c-.428,0-.978.978-1.528.55s0-1.1,0-1.65.733-2.75,1.1-4.156C78.553,93.6,80.2,87.852,82.159,81.924c1.222-3.728,2.506-7.455,3.789-11.183a7.456,7.456,0,0,1,2.2-3.117,45.65,45.65,0,0,1,13.689-8.189,10.818,10.818,0,0,0,2.078-.978.932.932,0,0,0,.794-1.161,1.128,1.128,0,0,0-1.344-.672,11.855,11.855,0,0,0-3.85.917,50.719,50.719,0,0,0-9.044,5.133l-.55.367a.8.8,0,0,1-.733,0v-.856c.856-2.75,2.139-5.378,3.239-8.005s2.689-6.111,3.728-9.044V44.4a.794.794,0,0,0-.428-.917.733.733,0,0,0-.978,0,3.178,3.178,0,0,0-.733,1.1c-2.689,4.889-4.583,10.083-6.844,15.155-1.406,3.056-2.506,6.111-3.85,9.35-.856,2.078-1.65,4.278-2.383,6.478v.489a.789.789,0,0,1-.733.733c-.367,0-.55-.428-.672-.733a24.449,24.449,0,0,1-.978-3.606c-1.406-4.644-2.872-9.228-4.705-13.689a7.7,7.7,0,0,0-1.711-2.444s-.428-.489-.733-.306,0,.489,0,.794a7.211,7.211,0,0,0,.55,2.994c1.283,3.3,2.444,6.6,3.544,9.961s2.2,7.883,3.239,11.855a2.016,2.016,0,0,1,0,1.467c-2.017,6.111-3.911,11.672-5.622,17.6s-2.872,10.205-4.033,15.4c-.428,2.017-.917,4.094-1.467,6.111,0,.306,0,.794-.611.794s-.55-.428-.672-.794c-1.344-4.278-2.933-8.494-4.583-12.711a82.012,82.012,0,0,0-5.989-12.894,32.027,32.027,0,0,0-2.506-3.605,2.261,2.261,0,0,0,0,1.772,54.142,54.142,0,0,0,3.3,10.694c2.628,6.661,5.439,13.261,7.517,20.166a12.22,12.22,0,0,1,.489,2.628c0,1.772.611,3.544.611,5.378a2.444,2.444,0,0,1-.428,1.711c-.611,0-.733-.428-1.039-.672a17.175,17.175,0,0,1-2.139-3.056h0a.55.55,0,0,1,0,.611c-.55,0-.672,0-.856-.55a30.922,30.922,0,0,0-6.722-8.861,20.717,20.717,0,0,0-5.072-4.156c-.672-.306-1.161-.978-1.894-1.344a.55.55,0,0,1,0-.733,42.412,42.412,0,0,0,1.528-11.733,40.334,40.334,0,0,0-1.406-10.755A21.45,21.45,0,0,1,48.3,80.152a93.379,93.379,0,0,1,4.767-9.594,58.239,58.239,0,0,0,4.156-11.122,26.828,26.828,0,0,0,2.2,9.533,5.683,5.683,0,0,0,6.111,3.361,3.606,3.606,0,0,0,2.444-3.117,39.9,39.9,0,0,0-.733-6.111,27.622,27.622,0,0,1,.244-9.778A34.772,34.772,0,0,1,78.064,36.091a63.249,63.249,0,0,1,14.361-9.533c2.017-1.039,4.033-2.139,6.111-2.994A11.672,11.672,0,0,1,103,21.853a3.239,3.239,0,0,1,3.361,2.872,62.763,62.763,0,0,0,3.789,13.628,64.039,64.039,0,0,1,3.544,12.222,29.211,29.211,0,0,1-1.161,16.805,17.294,17.294,0,0,1-8.189,9.105,20.655,20.655,0,0,0-4.706,2.872,2.139,2.139,0,0,0,0,3.606,5.744,5.744,0,0,0,5.744.55,20.412,20.412,0,0,0,5.378-3.056A3.422,3.422,0,0,1,116.32,81.5a62.273,62.273,0,0,1,6.661,18.455,73.33,73.33,0,0,1,1.283,15.889,4.828,4.828,0,0,1-2.322,4.461,44.247,44.247,0,0,1-8.494,3.85,26.583,26.583,0,0,0-10.205,5.439,9.289,9.289,0,0,0-3.178,7.15,3.728,3.728,0,0,0,2.078,3.239,10.816,10.816,0,0,0,7.822.55,27.744,27.744,0,0,0,5.256-1.711,3.239,3.239,0,0,1,4.522,1.222,21.633,21.633,0,0,1,4.583,11.061Z" transform="translate(237.571 111.674)" fill="#3dd40b"/>
  <path id="Caminho_7" data-name="Caminho 7" d="M78.972,168.785a11.856,11.856,0,0,1-3.117,2.017c-1.833.489-2.872,0-2.811-2.078A29.333,29.333,0,0,0,70.111,155.1a25.239,25.239,0,0,0-10.817-11.061,29.822,29.822,0,0,0-9.839-3.361,47.168,47.168,0,0,0-7.211,0A2.383,2.383,0,0,0,39.8,143.3,71.685,71.685,0,0,1,38.211,157.3a27.745,27.745,0,0,1-.733,3.055c0,.55-.428.489-.856,0a11.245,11.245,0,0,1-3.239-5.255,17.783,17.783,0,0,0-3.117-6.111,15.95,15.95,0,0,0-8.067-4.828h-.489c.611-.733,1.467-.489,2.139,0a35.565,35.565,0,0,0,7.639.733,10.878,10.878,0,0,0,5.255-1.528,4.889,4.889,0,0,0,1.344-6.111,14.483,14.483,0,0,0-10.755-7.333c-3.483-.794-7.089-1.039-10.511-2.017l-2.872-.794a5.072,5.072,0,0,1-3.117-4.094c-.428-2.322-.794-4.644-1.161-6.967A60.621,60.621,0,0,1,9,107.063a56.894,56.894,0,0,1,1.222-10.511,53.412,53.412,0,0,1,2.444-9.167,3.239,3.239,0,0,1,4.705-1.956,24.445,24.445,0,0,0,5.744,1.956,6.417,6.417,0,0,0,5.806-1.1,2.322,2.322,0,0,0-.428-4.094,26.34,26.34,0,0,0-5.683-2.078,16.561,16.561,0,0,1-7.15-4.828,23.833,23.833,0,0,1-4.583-8.25A27.5,27.5,0,0,1,9.733,59.4a55.305,55.305,0,0,1,.489-10.511c.672-4.278,1.467-8.494,1.833-12.833V29.941a3.3,3.3,0,0,1,4.094-3.3c3.056.672,6.111,1.528,9.044,2.444A79.444,79.444,0,0,1,36.439,33.18,43.571,43.571,0,0,1,46.4,39.291a33,33,0,0,1,6.722,7.822c.306.489.611.917.856,1.406s1.222,2.2,2.689,2.2c-.794.306-.978.794-.611,1.589A26.705,26.705,0,0,1,57.888,62.7a16.072,16.072,0,0,0,.489,4.156,2.811,2.811,0,0,0,4.217,1.894,7.028,7.028,0,0,0,3.789-6.478,48.89,48.89,0,0,0,0-7.333,3.544,3.544,0,0,1,4.767-3.178A51.517,51.517,0,0,1,88.688,63.98a14.785,14.785,0,0,0,1.528,1.894,16.928,16.928,0,0,0-1.344-2.261A45.894,45.894,0,0,0,72.8,49.864a66.186,66.186,0,0,0-6.722-2.994,9.35,9.35,0,0,1-2.444-1.283A1.283,1.283,0,0,1,63.022,44c0-.733.794-.794,1.406-.794a9.656,9.656,0,0,1,3.178.733,50.05,50.05,0,0,1,15.522,9.228c1.283,1.161,2.567,2.322,3.789,3.667a44.794,44.794,0,0,1,3.3,4.156V53.958c0-.428,0-1.039.428-1.283a35.688,35.688,0,0,1,.794,13.933c-.611,6.111-1.894,12.222-2.078,18.333v1.833c0,.489,0,.733-.428,1.039a118.2,118.2,0,0,0-7.761,9.594c-1.65,2.322-3.178,4.706-4.706,7.15a1.045,1.045,0,0,1-1.222.978c-.794-.122,0-.794,0-1.222.428-2.933,1.222-5.744,1.65-8.678a33.733,33.733,0,0,0,.367-7.456.8.8,0,0,0,0-.611c-.489,0-.611.55-.794.917a39.476,39.476,0,0,0-2.872,9.228c-.856,4.828-1.772,9.655-2.628,14.483a9.647,9.647,0,0,1-.55,3.911,6.111,6.111,0,0,1-1.161,2.689c-.55,0-.672,0-.856-.611-2.628-6.111-5.439-12.222-8.372-17.905s-5.683-11.244-8.983-16.622a7.089,7.089,0,0,1-.794-4.828c.306-2.444.306-4.95.611-7.456s.733-6.539,1.406-9.778a36.661,36.661,0,0,0,.611-4.522,7.576,7.576,0,0,0,0-1.65c0-.611-.489-.856-.978-.306a4.95,4.95,0,0,0-1.039,1.833A103.4,103.4,0,0,0,48.966,68.5c0,2.567-.55,5.133-.611,7.7,0,.306,0,.794-.489.856s-.55,0-.733-.55c-1.528-2.383-3.056-4.767-4.522-7.211-3.239-5.378-6.844-10.511-10.328-15.766-1.344-2.078-2.872-3.972-4.4-6.111a2.872,2.872,0,0,0-.611-.611c-.428,0-.856-.367-1.222,0s0,.733,0,1.1a20.167,20.167,0,0,0,1.589,2.75c2.689,4.156,5.561,8.189,8.189,12.222.306.489,1.039.978.489,1.589s-1.039,0-1.528-.367a48.092,48.092,0,0,0-10.817-3.3,6.111,6.111,0,0,0-2.383,0c-.611,0-1.344,0-1.467.856s.55,1.039,1.161,1.222a28.717,28.717,0,0,0,3.117.733,42.779,42.779,0,0,1,14.483,5.5,6.967,6.967,0,0,1,2.506,2.994c2.994,5.072,6.111,10.267,8.617,15.461s4.4,8.739,6.6,13.139a4.1,4.1,0,0,0,.672,1.65c.306.55.428.794,0,1.222s-.794,0-1.222,0a53.169,53.169,0,0,0-6.111-2.628,67.222,67.222,0,0,0-12.222-3.483,11.794,11.794,0,0,0-2.933,0c-.489,0-.917,0-1.039.733s.367.733.733.978a11.673,11.673,0,0,0,4.033,1.344c3.422.856,6.844,1.711,10.144,2.872a87.089,87.089,0,0,1,10.755,4.522,2.322,2.322,0,0,1,1.039,1.222c1.956,4.461,4.033,8.861,6.111,13.383s3.361,8.311,4.889,12.589c.917,2.567,1.833,5.133,2.933,7.7,0,.489.611,1.161,0,1.528s-1.039,0-1.467-.611a55.917,55.917,0,0,0-12.528-7.639A59.276,59.276,0,0,0,43.65,131.2a4.95,4.95,0,0,1-1.772-.55,1.65,1.65,0,0,0-2.078.367,1.772,1.772,0,0,0-.244,2.2,2.811,2.811,0,0,0,1.833,1.039c2.994.55,6.111.917,8.861,1.65a59.52,59.52,0,0,1,19.066,9.044,72.178,72.178,0,0,1,6.111,4.522,6.111,6.111,0,0,1,1.65,2.689,55,55,0,0,0,1.711,5.378,3.971,3.971,0,0,1,.489,1.039c0,2.933.428,6.111.489,8.739A1.711,1.711,0,0,1,78.972,168.785Z" transform="translate(45.999 135.668)" fill="#8cea01"/>
  <path id="Caminho_8" data-name="Caminho 8" d="M60.646,105.651c-.306.367,0,.794,0,1.161v7.822A8.251,8.251,0,0,1,59,112.679a48.032,48.032,0,0,0-12.711-11.305,75.655,75.655,0,0,0-8.372-4.094,16.01,16.01,0,0,0-2.933-.794c-.611,0-1.344,0-1.589.55s0,1.1.733,1.467a32.878,32.878,0,0,0,5.011,2.2,50.539,50.539,0,0,1,13.75,8.739A48.887,48.887,0,0,1,60.218,118l.367.55s.367.794,0,.978-.55,0-.733-.55a37.706,37.706,0,0,0-12.222-10.511c-2.017-1.1-4.156-2.139-6.111-3.178s-4.95.733-4.522,2.872a23.466,23.466,0,0,1,0,4.156,12.528,12.528,0,0,1-1.894,8.433,4.95,4.95,0,0,1-4.583,1.833,2.811,2.811,0,0,1-1.956-1.772,10.144,10.144,0,0,1-.672-3.544,38.072,38.072,0,0,0-.917-9.105,21.569,21.569,0,0,0-.917-2.811c-.55-1.406-.55-1.406.917-1.467,2.383,1.589,5.439-1.161,5.561-3.422a8.189,8.189,0,0,0-3.667-6.844A34.526,34.526,0,0,0,20.5,89.151c-1.467-.672-2.933-1.344-4.339-2.139a2.322,2.322,0,0,1-1.283-2.261A28.783,28.783,0,0,1,17.38,71.979a31.228,31.228,0,0,1,2.75-5.072c2.75-3.972,5.5-3.728,9.044-1.222A15.277,15.277,0,0,0,35.285,68.8a3.911,3.911,0,0,0,3.85-1.222,3.3,3.3,0,0,0,0-3.789,15.766,15.766,0,0,0-5.072-5.683A18.333,18.333,0,0,1,27.952,52a12.222,12.222,0,0,1,0-9.594,33.427,33.427,0,0,1,6.111-9.655,19.861,19.861,0,0,0,4.767-8.189,32.2,32.2,0,0,0,0-6.417,1.894,1.894,0,0,1,2.689-1.833l1.711,1.1a129.98,129.98,0,0,1,12.833,9.35,50.966,50.966,0,0,1,9.717,9.472,8.983,8.983,0,0,1,1.283,9.289A11.855,11.855,0,0,0,65.9,49.307V50.1c0,.183.489,0,.733,0a35.932,35.932,0,0,0,4.4-3.117c.733-.55,0-1.406.428-2.017a12.772,12.772,0,0,1,0,3.422V54.5c-.917.856-2.2,1.222-3.178,2.078a66.609,66.609,0,0,0-7.517,7.639c-.611.794-1.283,1.467-1.833,2.322s-.428.611-.794.55-.489-.489-.55-.856c-.978-4.033-2.017-8.067-3.056-12.222-.733-2.75-1.589-5.5-2.506-8.189a2.689,2.689,0,0,1,.733-3.056c1.772-1.956,3.667-3.911,5.561-6.111a1.467,1.467,0,0,0,.733-1.1,2.139,2.139,0,0,0-1.711.489,16.439,16.439,0,0,0-4.828,4.583,1.283,1.283,0,0,0,0,.367.967.967,0,0,1-1.039.733c-.489-.061-.611-.55-.794-.917-.672-2.139-1.528-4.217-2.261-6.111a27.8,27.8,0,0,1-1.283-3.117.552.552,0,0,0-.672-.55c-.367.122-.367.55,0,.917s.55,1.894.917,2.811c1.589,4.461,2.811,8.983,4.094,13.444,0,.611.672,1.406,0,1.711s-1.1-.428-1.467-.856a21.511,21.511,0,0,0-6.844-5.072,13.75,13.75,0,0,0-6.6-1.344,3.422,3.422,0,0,0-1.589.428c-.306,0-.611,0-.55.611s.428.489.733.489l2.628.306a16.133,16.133,0,0,1,9.228,3.972c1.65,1.344,3.178,2.872,4.767,4.4a10.205,10.205,0,0,1,2.322,5.317C55.268,62.69,56.246,67.212,57.1,71.8c.611,3.544,1.161,7.089,1.711,10.633V83.9c0,.244-.733,0-1.039-.367a31.655,31.655,0,0,0-16.5-6.111,8.311,8.311,0,0,0-4.461.733,3.728,3.728,0,0,0,2.628.794,34.222,34.222,0,0,1,19.25,6.967,2.933,2.933,0,0,1,1.222,2.017c0,2.383.611,4.767.611,7.211a16.622,16.622,0,0,0,.672,9.289,5.2,5.2,0,0,1-.55,1.222Z" transform="translate(75.936 82.447)" fill="#3dd40b"/>
  <path id="Caminho_9" data-name="Caminho 9" d="M49.926,26.573a25.362,25.362,0,0,1,0-4.828,4.889,4.889,0,0,1,7.15-3.789,5.744,5.744,0,0,1,3.606,3.422c.733,1.711.733,1.711,2.444,1.039a7.394,7.394,0,0,1,5.011-.428A6.111,6.111,0,0,1,71.132,31.1a16.744,16.744,0,0,1-6.844,4.95c-1.65.794-3.483,1.344-5.133,2.139a6.111,6.111,0,0,1-8.005-3.056,14.117,14.117,0,0,1-.856-5.744A21.569,21.569,0,0,1,49.926,26.573Z" transform="translate(254.588 88.865)" fill="#eb3f17"/>
  <path id="Caminho_10" data-name="Caminho 10" d="M31.216,29.667a5.256,5.256,0,0,1-4.4-2.078,27.072,27.072,0,0,1-6.111-9.717,3.789,3.789,0,0,1,1.039-4.767,4.4,4.4,0,0,1,5.133,0,23.528,23.528,0,0,1,3.972,3.422c.489.55.733.489,1.1,0a12.833,12.833,0,0,1,3.3-3.483,5.011,5.011,0,0,1,7.639,2.506,7.272,7.272,0,0,1-.611,4.4,16.194,16.194,0,0,1-7.944,9.105,4.583,4.583,0,0,1-3.117.611Z" transform="translate(103.593 61.998)" fill="#eb3f17"/>
  <path id="Caminho_11" data-name="Caminho 11" d="M70,83.9a6.111,6.111,0,0,1-4.033-.733,4.767,4.767,0,0,1-2.139-4.339,77.724,77.724,0,0,1,.978-9.167,10.023,10.023,0,0,1,2.322-5.194A3.545,3.545,0,0,1,71.164,63.3a3.85,3.85,0,0,1,2.628,3.361,16.378,16.378,0,0,1,0,4.889c0,.856,0,.856.794.794a7.15,7.15,0,0,1,4.889.917,5.256,5.256,0,0,1,0,8.189,10.878,10.878,0,0,1-5.744,2.2A11.431,11.431,0,0,1,70,83.9Z" transform="translate(326.177 322.426)" fill="#eb3f17"/>
  <path id="Caminho_12" data-name="Caminho 12" d="M10.623,66.452a11.367,11.367,0,0,1,5.744,2.994c1.039.855,1.039.855,1.772,0a4.95,4.95,0,0,1,8.311-.489,6.111,6.111,0,0,1,.794,4.828A16.378,16.378,0,0,1,21.5,82.891a4.583,4.583,0,0,1-6.478-.856,54.023,54.023,0,0,1-6.844-9.35,8.25,8.25,0,0,1-1.039-3.422C7.017,67.308,7.873,66.391,10.623,66.452Z" transform="translate(36.432 339.627)" fill="#eb3f17"/>
  <path id="Caminho_13" data-name="Caminho 13" d="M14.524,57.538a6.967,6.967,0,0,1-5.683-2.872,16.806,16.806,0,0,1-3.422-6.111,3.667,3.667,0,0,1,4.033-4.461,5.255,5.255,0,0,1,3.667.978c.856.672,1.161.428,1.467-.489a9.35,9.35,0,0,1,1.772-2.872,4.583,4.583,0,0,1,7.455,1.894,8.433,8.433,0,0,1,0,5.622,12.222,12.222,0,0,1-7.272,8.25h-.733Z" transform="translate(27.215 206.948)" fill="#eb3f17"/>
  <path id="Caminho_14" data-name="Caminho 14" d="M15.608,22.594a3.85,3.85,0,0,1,3.483,1.956c.489.733.672.978,1.222,0a4.461,4.461,0,0,1,3.239-2.75,3.667,3.667,0,0,1,4.522,4.583,17.661,17.661,0,0,1-2.811,6.844A5.439,5.439,0,0,1,18.174,35a11.55,11.55,0,0,1-6.111-7.822,3.606,3.606,0,0,1,3.544-4.583Z" transform="translate(60.964 110.688)" fill="#eb3f17"/>
  <path id="Caminho_15" data-name="Caminho 15" d="M60.129,43.544a9.533,9.533,0,0,1,1.161-5.256,2.322,2.322,0,0,1,2.444-1.222,2.2,2.2,0,0,1,1.956,1.711,6.539,6.539,0,0,1,.367,1.833c0,.856.489.856,1.1.55l1.772-.794a4.583,4.583,0,0,1,6.111,2.506,4.767,4.767,0,0,1-1.956,6.111,17.539,17.539,0,0,1-8.25,2.261A3.972,3.972,0,0,1,60.8,48.067a16.684,16.684,0,0,1-.672-4.522Z" transform="translate(307.207 189.287)" fill="#eb3f17"/>
  <path id="Caminho_16" data-name="Caminho 16" d="M56.247,25.111a7.211,7.211,0,0,1-6.417-2.933,6.478,6.478,0,0,1,0-6.111c0-1.161,2.017-1.589,3.3-1.1A4.033,4.033,0,0,1,54.9,16.188c.672.917.856.367,1.1,0a10.573,10.573,0,0,1,1.1-2.383,3.85,3.85,0,0,1,7.272,1.283,8.8,8.8,0,0,1-4.033,8.922A6.844,6.844,0,0,1,56.247,25.111Z" transform="translate(250.772 59.65)" fill="#eb3f17"/>
  <path id="Caminho_17" data-name="Caminho 17" d="M25.541,12.91a12.772,12.772,0,0,1,.428-4.339A2.872,2.872,0,0,1,28.658,6.31c1.283,0,2.139,1.1,2.322,2.75s.306,2.139,2.261,1.283a6.417,6.417,0,0,1,2.811-.55,2.628,2.628,0,0,1,2.628,1.528,3.117,3.117,0,0,1-.611,3.361,7.761,7.761,0,0,1-4.217,2.261c-1.406.367-2.811.672-4.278.917-2.567.489-4.033-.733-4.094-3.422Z" transform="translate(130.23 32.251)" fill="#eb3f17"/>
  <path id="Caminho_18" data-name="Caminho 18" d="M21.581,91.684c0-3.544-.733-7.028-.489-10.572a14.666,14.666,0,0,1-.794-4.889q0-5.408,0-10.817a27.624,27.624,0,0,1,0-3.911c0-.611,0-1.222,1.039-1.283a2.139,2.139,0,0,1,1.344.367,62.515,62.515,0,0,0,12.772,5.072,4.767,4.767,0,0,0,3.178,0c.611,0,.611.733.672,1.283a78.039,78.039,0,0,0,5.744,24.444,83.717,83.717,0,0,0,4.889,10.328,2.505,2.505,0,0,1,.306.55c0,.856,0,1.222-.856,1.039s-3.361-.672-5.011-1.1-3.789-1.161-5.806-1.65c0,.55.428.672.733.794a36.666,36.666,0,0,0,13.2,3.85c3.3,0,6.6.856,9.961,1.039a107.366,107.366,0,0,0,11.733,0,82.308,82.308,0,0,0,11.55-1.222c3.85-.55,7.7-1.222,11.672-1.894a4.644,4.644,0,0,0-1.406-1.467c-3.85-3.361-8.128-6.111-12.222-9.655s-7.7-6.539-11.428-9.9a72.354,72.354,0,0,1-8.678-9.167A28.111,28.111,0,0,1,58.064,60.7a4.154,4.154,0,0,1,0-1.222,8.922,8.922,0,0,1,.794-5.194c.306-.489.489-.978,1.1-1.161s.794.978.978,1.589a90.5,90.5,0,0,0,2.994,9.533,22.794,22.794,0,0,0,6.111,8.983A4.033,4.033,0,0,0,72,74.267a2.994,2.994,0,0,0-.917-1.161,22.306,22.306,0,0,1-6.967-10.083c-1.161-2.994-2.139-6.111-2.994-9.167a5.606,5.606,0,0,0-.489-2.811,5.5,5.5,0,0,1,4.094-4.4c.489,0,.611.367.611.733a27.988,27.988,0,0,0,3.3,10.083,47.177,47.177,0,0,0,5.683,9.35s.489.794,1.039.794a.917.917,0,0,0-.367-1.039A49.2,49.2,0,0,1,68.881,57.1a32.084,32.084,0,0,1-3.239-8.861,30.56,30.56,0,0,1,0-4.767,3.361,3.361,0,0,1,3.911-1.711,4.889,4.889,0,0,1,3.239,2.383,25.914,25.914,0,0,0,0,4.339A38.011,38.011,0,0,0,80.431,65.1a5.622,5.622,0,0,0,1.956,1.589c0-.55,0-.672-.489-.917A39.66,39.66,0,0,1,73.22,47.44a9.838,9.838,0,0,1,.611-3.544,2.261,2.261,0,0,1,2.628-1.039,6.844,6.844,0,0,1,4.583,4.217c1.1,1.956,1.65,4.217,2.628,6.111A16.806,16.806,0,0,0,88.8,59.906,20.6,20.6,0,0,0,90.7,61.19h.856c.306,0,0-.489,0-.733A73.69,73.69,0,0,1,91,52.267a10.7,10.7,0,0,1,.489-3.117,3.056,3.056,0,0,1,4.95-.611,9.839,9.839,0,0,1,2.383,2.872,45.283,45.283,0,0,1,3.728,9.106c1.283,3.972,2.2,8.005,3.789,11.855a7.394,7.394,0,0,0,2.261,3.178,61.112,61.112,0,0,0,10.389,6.906,143.24,143.24,0,0,0,14.483,6.967,2.445,2.445,0,0,1,1.344.856c.306.733-.367.856-.794,1.039a91.665,91.665,0,0,1-11.794,5.072,128.877,128.877,0,0,1-19.189,5.194,14.3,14.3,0,0,0-2.322.55.474.474,0,0,0-.489.55c.061.55.367,0,.55,0h1.467a93.122,93.122,0,0,0,12.772-2.689,152.052,152.052,0,0,0,15.339-5.378c1.528-.55,2.994-1.283,4.522-1.956s1.772-1.161,1.405-2.506C139.83,84.534,142.4,78.239,145.7,72.5a22.732,22.732,0,0,1,4.278-5.683,6.111,6.111,0,0,1,3.3-1.772,2.506,2.506,0,0,1,3.422,2.506,12.894,12.894,0,0,1-.306,4.583,11.9,11.9,0,0,1-.917,3.728,36.537,36.537,0,0,0-1.039,3.911A1.406,1.406,0,0,0,155.6,79.4,28.477,28.477,0,0,0,167.269,68.34a9.717,9.717,0,0,1,1.1-1.65,10.266,10.266,0,0,1,3.911-3.85,3.422,3.422,0,0,1,4.278.367c.611.55,1.1.306,1.65,0a4.583,4.583,0,0,1,3.85-1.161,3.544,3.544,0,0,1,3.178,3.728,3.666,3.666,0,0,0,1.283,2.75,5.072,5.072,0,0,1,2.078,3.911,6.906,6.906,0,0,1-.733,3.117,53.835,53.835,0,0,1-3.361,6.783,31.593,31.593,0,0,1-6.783,7.944,9.412,9.412,0,0,0-1.589,1.528v.489a.489.489,0,0,0,.611,0,6.784,6.784,0,0,0,1.833-1.344A36.117,36.117,0,0,0,186.4,80.806a27.317,27.317,0,0,0,1.894-5.011c0-.978.428-1.039,1.222-.489a8.495,8.495,0,0,1,0,6.6,5.748,5.748,0,0,1-.367.917,39.294,39.294,0,0,1-6.905,10.633,51.088,51.088,0,0,1-9.533,8.189,44.364,44.364,0,0,0,8.005.733,14.791,14.791,0,0,0,2.872,0,14.544,14.544,0,0,0,4.889.611,45.241,45.241,0,0,0,9.411-.672,5.561,5.561,0,0,0,2.139-.733.56.56,0,0,0,.55-.611c0-.611,0-.428-.611-.55a4.583,4.583,0,0,0-1.589,0,33.665,33.665,0,0,0-4.95,0,1.894,1.894,0,0,1-1.161,0c-.489-.428,0-.856,0-1.283a100.77,100.77,0,0,0,4.889-12.222,98.816,98.816,0,0,0,3.483-13.933c0-.367,0-.978.733-.733a2.383,2.383,0,0,0,2.383,0,31.484,31.484,0,0,0,3.3-1.406,1.344,1.344,0,0,1,1.344,0c1.467,0,1.283,1.528,1.222,2.139,0,2.506,1.1,4.706,1.1,7.15s.611,3.178.733,4.828c.917,3.239.978,6.661,1.711,9.961a43.265,43.265,0,0,1,.917,12.222,13.082,13.082,0,0,1-.367,2.139c-.306,1.833-1.039,3.606-1.406,5.5,0,.55-1.161.489-.856,1.283s-.428,1.589-.733,2.261a7.333,7.333,0,0,1-1.406,2.261,52.552,52.552,0,0,1-4.094,4.889,38.87,38.87,0,0,1-5.317,4.156l-3.361,2.078a49.863,49.863,0,0,1-11.061,4.033,2.567,2.567,0,0,1-1.528,0h0a8.006,8.006,0,0,1-2.872.733c-2.811,0-5.622.672-8.494.489a22.319,22.319,0,0,1-5.317-.428,12.768,12.768,0,0,1-2.628,0,86.9,86.9,0,0,1-20.472-5.255c-3.667-1.406-7.272-2.933-10.817-4.706a3.91,3.91,0,0,1-1.161-.794c0-.856.367-.978.917-1.222a116.1,116.1,0,0,0,10.878-4.889c5.255-2.628,10.45-5.378,15.461-8.372,3.056-1.833,6.111-3.606,9.105-5.683l.672-.55c0-.367.672-.733.367-1.161s-.794,0-1.222,0l-3.361,2.078c-3.483,2.261-6.967,4.461-10.572,6.478a125.716,125.716,0,0,1-11.794,6.111c-4.033,1.711-6.111,3.361-9.533,4.644a9.227,9.227,0,0,0-2.2,1.833c-3.056,1.589-6.111,2.933-9.35,4.278-5.133,2.2-10.389,4.155-15.705,6.111a134.447,134.447,0,0,1-21.878,5.256,14.3,14.3,0,0,0-2.75.428,97.108,97.108,0,0,1-16.866.489,38.988,38.988,0,0,1-9.167-1.283,4.767,4.767,0,0,0-1.956-.733h-.428c-.428.367-.856,0-1.344,0a89.221,89.221,0,0,1-10.328-4.217,39.966,39.966,0,0,1-4.217-2.933,35.5,35.5,0,0,1-3.972-3.422c-1.1-1.039-1.711-2.383-2.811-3.483l-1.161-2.2a16.8,16.8,0,0,0-1.711-3.483,26.828,26.828,0,0,1-2.811-7.944,18.7,18.7,0,0,0-.672-3.606c-.489-2.444-.55-4.95-.978-7.394S22.192,94.739,21.581,91.684Z" transform="translate(103.39 212.769)" fill="#f7bca7"/>
  <path id="Caminho_19" data-name="Caminho 19" d="M68.681,107.461a17.232,17.232,0,0,0,2.444-4.4,8.616,8.616,0,0,1,1.222,3.361A128.339,128.339,0,0,1,75.4,119.133,99.614,99.614,0,0,1,77.3,131.355v2.75a2.628,2.628,0,0,0,.856-1.283c1.772-2.994,3.361-6.111,5.256-8.983s4.217-6.783,6.111-10.144l6.355-8.861c1.589-2.261,3.239-4.461,4.889-6.722a2.444,2.444,0,0,0,.306-2.444c-.917-3.178-1.589-6.111-2.444-9.594-1.283-4.583-2.75-9.105-4.461-13.505a16.928,16.928,0,0,1-1.955-7.455s0-.733,0-.917.672,0,.978,0a8.555,8.555,0,0,1,1.833,2.139,33.365,33.365,0,0,1,3.422,7.333c1.161,2.994,2.2,6.111,3.056,9.044s1.406,6.111,2.078,9.044a2.628,2.628,0,0,0,.489,1.161l4.4-5.622c2.506-3.178,5.011-6.478,7.639-9.594,4.033-4.828,8.067-9.717,12.222-14.239a1.711,1.711,0,0,0,0-2.078c-.917-2.2-1.222-4.522-2.017-6.661a39.962,39.962,0,0,0-1.711-4.033,28.112,28.112,0,0,1-1.65-5.317c0-.367,0-.978,0-1.222s.733,0,1.039.489a16.5,16.5,0,0,1,4.278,6.417,44.121,44.121,0,0,1,2.261,8.189c0,.306,0,.672.367.733s.428,0,.611-.428c1.956-2.017,3.911-4.094,6.111-6.111l7.272-7.089a1.528,1.528,0,0,1,2.078,0c.672.55.55,1.283,0,2.078L135.047,61.506c-2.628,2.933-5.133,6.111-7.7,8.922a7.515,7.515,0,0,0-1.467,2.322l3.728-1.589a42.167,42.167,0,0,1,9.839-2.444,30.923,30.923,0,0,1,11.611.978,11.061,11.061,0,0,1,5.317,3.3,1.528,1.528,0,0,1,0,2.078c-.489.672-1.222.55-1.894,0a63.557,63.557,0,0,0-7.272-2.444,27.867,27.867,0,0,0-11.244,0,91.672,91.672,0,0,0-13.322,4.278c-2.75,1.039-3.911,3.361-5.622,5.317s-3.544,4.339-5.194,6.661c-2.689,3.789-5.622,7.517-8.311,11.367s-4.278,6.111-6.111,9.167-3.789,5.806-5.683,8.739v.428l4.033-.794a50.907,50.907,0,0,1,13.628-.611,48.9,48.9,0,0,1,8.861,1.406,26.828,26.828,0,0,1,10.328,4.461,8.739,8.739,0,0,1,1.405,1.65.672.672,0,0,1,0,.855c0,.367-.489,0-.733,0a42.17,42.17,0,0,1-8.617-2.506,40.572,40.572,0,0,0-8.128-2.017,50.6,50.6,0,0,0-9.167-.672A68.815,68.815,0,0,0,89.7,122.127c-1.1,0-1.344,1.406-1.833,2.2-2.628,4.339-5.255,8.678-7.761,13.139s-4.706,8.678-7.028,13.078c-1.406,2.811-2.689,5.622-4.217,8.372a20.47,20.47,0,0,0-1.283,2.872v.672c0,.183.428,0,.611,0a64.533,64.533,0,0,1,10.572-5.072,79.445,79.445,0,0,1,33.305-5.194,36.677,36.677,0,0,1,6.111.55,4.705,4.705,0,0,1,2.078,1.344c.611.428.428.978,0,1.528a4.094,4.094,0,0,1-3.422,1.1H105.469a76.09,76.09,0,0,0-12.222,1.039,91.67,91.67,0,0,0-12.222,3.056A83.9,83.9,0,0,0,66.6,167.594a8.005,8.005,0,0,0-3.361,3.911c-2.261,5.194-4.4,10.389-6.539,15.644-.733,1.711-1.344,3.483-2.017,5.194a42.045,42.045,0,0,1-1.222-5.5c-.489-2.078-.917-4.156-1.222-6.111s-.856-3.972-1.039-6.111c0-1.161-.55-2.322-.672-3.544s-.794-4.339-1.161-6.478-.672-4.461-1.1-6.661a9.655,9.655,0,0,1-.55-2.994c.55,0,.55.55.733.917a64.956,64.956,0,0,1,4.217,12.894,59.583,59.583,0,0,1,1.528,9.9,1.956,1.956,0,0,0,0,.978c.978-2.506,2.322-4.767,3.056-7.272s2.506-4.95,3.483-7.517,2.628-5.744,4.033-8.555c2.017-4.094,4.033-8.311,6.111-12.222.794-1.406,1.589-2.811,2.261-4.278a8.494,8.494,0,0,0,0-4.461A158.4,158.4,0,0,0,68.986,114a45.465,45.465,0,0,0-1.344-4.95A4.339,4.339,0,0,1,68.681,107.461Z" transform="translate(243.899 225.164)" fill="#3dd40b"/>
  <path id="Caminho_20" data-name="Caminho 20" d="M97.409,85.5c.672,1.894,1.222,3.85,2.017,5.744a34.47,34.47,0,0,0,2.2,4.217,2.567,2.567,0,0,1,.428,1.467,4.155,4.155,0,0,1,.672,2.689,86.834,86.834,0,0,0,1.283,10.511,58.67,58.67,0,0,0,1.956,8.617,3.606,3.606,0,0,0,1.039,1.65c4.522,3.911,8.678,8.189,13.017,12.222a10.755,10.755,0,0,1,2.75,2.994l-.733,6.111-.367,2.75a4.522,4.522,0,0,0-2.322-.733c-2.383,0-4.706-.672-7.15-.856s-4.583,0-6.905,0a65.686,65.686,0,0,0-10.389.978,74.621,74.621,0,0,0-11.611,2.75c-3.3,1.1-6.6,2.261-9.839,3.667a6.967,6.967,0,0,1-5.194.917c-1.161-.367-1.283-.672-.856-1.711a6.111,6.111,0,0,1,3.789-2.994C74.187,145.263,77.3,144.1,80.3,143a68.692,68.692,0,0,1,13.261-3.361,83.967,83.967,0,0,1,16.561-.672,66.548,66.548,0,0,1,10.205,1.283,5.377,5.377,0,0,0-1.161-1.589c-3.972-3.85-7.883-7.7-11.917-11.428-2.567-2.444-5.133-4.889-7.883-7.15s-5.439-4.828-8.372-7.028a30.977,30.977,0,0,1-3.728-3.178c-.917-.978-1.894-.55-2.872-.428A59.4,59.4,0,0,0,72.17,112.2a52.126,52.126,0,0,0-17.05,9.839,24.446,24.446,0,0,1-4.95,3.422c-.428,0-.794.428-1.222,0s0-.733,0-1.1a16.378,16.378,0,0,1,6.111-7.272,48.887,48.887,0,0,1,10.755-6.111,45.649,45.649,0,0,1,12.955-3.728l3.85-.55a23.04,23.04,0,0,0-3.3-2.811c-3.3-2.689-6.783-5.133-10.205-7.7S63,91.73,59.582,89.469s-7.822-5.256-11.733-7.822C45.954,80.363,44,79.263,42.1,78.041a1.711,1.711,0,0,0-.917,0,86.357,86.357,0,0,0-11.244,0A28.783,28.783,0,0,0,13.81,82.808c-1.772,1.222-3.3,2.628-4.95,3.911a2.261,2.261,0,0,1-1.222.55c-1.039,0-1.589-.611-1.344-1.589A9.044,9.044,0,0,1,8.8,81.647a26.277,26.277,0,0,1,10.878-6.111,27.742,27.742,0,0,1,6.111-1.161,50.3,50.3,0,0,1,5.256,0H35.2a3.239,3.239,0,0,0-1.467-1.039c-2.75-1.65-5.561-3.3-8.433-4.889s-6.111-3.422-9.289-5.133L6.843,58.486a1.283,1.283,0,0,1-.733-1.833A1.344,1.344,0,0,1,8,56.041c3.361,1.711,6.905,3.056,10.267,4.889l6.539,3.178c.306,0,.672.367.917,0s0-.55,0-.794a34.1,34.1,0,0,1-.611-7.456,15.583,15.583,0,0,1,1.894-8.067v-.428s.367-.611.794-.55,0,.55,0,.794a28.722,28.722,0,0,1,0,8.861,48.889,48.889,0,0,0,0,5.194,31.958,31.958,0,0,1,0,3.422,1.344,1.344,0,0,0,.794,1.406c3.178,1.467,6.111,3.361,9.167,4.95s4.278,2.567,6.478,3.911,4.522,2.628,6.661,4.094,5.439,3.178,7.883,5.133c.672.55,1.528.978,2.261,1.467s.733,0,.672-.428-.306-2.689-.489-4.033a41.921,41.921,0,0,1-.55-5.5,64.052,64.052,0,0,1,0-6.844,97.777,97.777,0,0,1,.672-10.328,9.9,9.9,0,0,1,1.222-3.239A.725.725,0,0,1,63.493,55c.489.183.55.489.672.917a15.339,15.339,0,0,1,.428,3.361c0,3.911,0,7.883,0,11.855a119.536,119.536,0,0,0,.794,12.222,14.789,14.789,0,0,1,0,4.033,2.2,2.2,0,0,0,1.283,2.383c4.033,2.628,7.822,5.561,11.672,8.433s6.111,4.461,8.922,6.844,6.6,5.5,9.961,8.25a23.956,23.956,0,0,0,2.872,2.444A174.959,174.959,0,0,1,97.409,85.5Z" transform="translate(30.434 239.245)" fill="#8cea01"/>
  <path id="Caminho_21" data-name="Caminho 21" d="M26.619,60.628a82.867,82.867,0,0,0,21.266,1.344c1.711,0,3.422-.428,5.133-.489a.733.733,0,0,1,.733,0,39.174,39.174,0,0,0,3.361,2.994c2.75,2.139,5.317,4.522,8.25,6.478a26.593,26.593,0,0,1,2.506,2.078,44.24,44.24,0,0,0,3.972,2.933c2.994,2.139,6.111,4.156,9.105,6.111l5.317,3.361c2.383,1.589,4.95,2.872,7.455,4.339a2.383,2.383,0,0,0,2.994,0c1.222-.917,2.628-1.65,3.911-2.444a60.492,60.492,0,0,0,5.317-3.422c1.65-1.161,3.422-2.139,5.011-3.361s4.033-2.811,6.111-4.339l4.889-3.789,4.461-3.728a141.169,141.169,0,0,0,11.672-10.939,3.545,3.545,0,0,1,.917-.672,63.614,63.614,0,0,0,14.055,0,13.566,13.566,0,0,1,2.383-.061,3.789,3.789,0,0,1-2.872,1.956,70.832,70.832,0,0,1-9.35,1.711c-1.039,0-1.528,1.039-2.139,1.711-1.711,1.833-3.361,3.667-5.194,5.5l-4.461,4.278c-2.628,2.444-5.255,4.889-8.067,7.089l-.489.428c-3.422,3.361-6.844,6.783-10.328,10.083A45.588,45.588,0,0,1,100.318,99a18.333,18.333,0,0,1-14.789.428,46.688,46.688,0,0,1-9.717-6.111C72.33,90.755,68.847,88.066,65.3,85.5s-5.5-4.217-8.128-6.478a47.6,47.6,0,0,0-10.633-7.456c-2.811-1.283-5.683-2.628-8.617-3.85-1.283-.489-2.689-.672-4.094-1.1a13.016,13.016,0,0,1-7.578-4.4c0-.367-.733-.733-.367-1.344a1.161,1.161,0,0,1,.733-.244Z" transform="translate(131.779 291.308)" fill="#d6bc03"/>
  <path id="Caminho_22" data-name="Caminho 22" d="M70.828,54.43c.794,3.117,1.65,6.111,2.444,9.289s1.1,4.583,1.528,6.905c.672,3.606,1.406,7.211,1.772,10.878a14.283,14.283,0,0,0,0,1.589,10.083,10.083,0,0,1-1.955,7.028c-2.444,4.094-4.461,8.494-6.6,12.772-1.406,2.811-2.811,5.683-4.094,8.617a20.717,20.717,0,0,1-3.056,6.111.978.978,0,0,0-.306.55,25.238,25.238,0,0,1-2.444,6.6,18.94,18.94,0,0,1-1.467,3.239A76.022,76.022,0,0,0,50.172,102.4l-1.65-10.755L47.3,81.135V79.73c1.283-.794,2.628-1.344,3.911-2.078A14.116,14.116,0,0,0,57.689,69.1a8.188,8.188,0,0,0,0-2.139,2.628,2.628,0,0,1,0-1.528c.489-.55,1.222-.611,1.772-1.039A40.271,40.271,0,0,0,67.1,58.28,13.027,13.027,0,0,0,70.828,54.43Z" transform="translate(241.753 278.195)" fill="#8cea01"/>
  <path id="Caminho_23" data-name="Caminho 23" d="M42.519,93.744l-4.094-3.789-8.311-8.067A36.047,36.047,0,0,0,27.3,79.444a7.394,7.394,0,0,1-2.567-4.889c-.611-2.872-1.283-5.744-1.65-8.678a59.094,59.094,0,0,1-1.039-8.128A21.206,21.206,0,0,0,21.68,55a12.222,12.222,0,0,1,2.994,3.422,11.186,11.186,0,0,0,.794.978c1.344,1.344,2.872,2.444,4.278,3.667a34.343,34.343,0,0,0,8.372,4.95c2.017.978,4.278,1.406,6.111,2.322h.978c-.55,2.2-.428,4.522-.856,6.783-.611,3.3-.611,6.722-1.222,10.022a49.917,49.917,0,0,0-.55,5.194C42.7,92.95,42.824,93.377,42.519,93.744Z" transform="translate(110.808 281.108)" fill="#3dd40b"/>
  <path id="Caminho_24" data-name="Caminho 24" d="M59.578,56.23a12.711,12.711,0,0,1-7.7,12.711,9.045,9.045,0,0,1-3.483,1.589c-.428-3.3-.856-6.6-1.344-9.9A75.178,75.178,0,0,0,55.483,58Z" transform="translate(240.475 287.395)" fill="#fefefe"/>
  <path id="Caminho_25" data-name="Caminho 25" d="M27.4,57.954h-.917c0-.306-.672,0-.856-.367a2.017,2.017,0,0,1,1.772.367Z" transform="translate(130.996 293.982)" fill="#b0d299"/>
  <path id="Caminho_26" data-name="Caminho 26" d="M38.161,56.286a35.872,35.872,0,0,1-6.783-1.222,44.549,44.549,0,0,1-7.333-2.872,1.1,1.1,0,0,1-.428,0s-.611,0-.428-.672a.672.672,0,0,1,.856-.306l2.2.733a60.742,60.742,0,0,0,8.128,2.017c.306,0,.733.428.978,0h0C36.511,54.881,37.427,55.736,38.161,56.286Z" transform="translate(118.343 261.488)" fill="#f0977c"/>
  <path id="Caminho_27" data-name="Caminho 27" d="M187.111,92.1c0,2.872-.489,5.622-.489,8.433,0,.367,0,.733-.428.917s-.306,0-.367,0a59.772,59.772,0,0,1-2.017,9.839,85.545,85.545,0,0,1-3.728,10.939c-1.039,2.322-2.017,4.705-2.994,7.028-.672.611-1.467.489-2.2.611a12.222,12.222,0,0,0-6.417,1.833,12.648,12.648,0,0,1-3.056,0,1.368,1.368,0,0,1,.55-1.344,43.39,43.39,0,0,0,4.217-5.744,24.444,24.444,0,0,0,3.667-10.633,4.768,4.768,0,0,0,0-2.078,10.022,10.022,0,0,0,1.039-6.661,1.284,1.284,0,0,0-.428-.917c-.978-.856-.672-2.017-.856-3.117a6.111,6.111,0,0,0-2.689-4.4,1.467,1.467,0,0,1-.611-1.406,6.723,6.723,0,0,0,0-1.528,3.85,3.85,0,0,0-6.111-2.017l-.489.428c-.611.611-1.1.794-1.772,0a2.872,2.872,0,0,0-3.606-.55,11.121,11.121,0,0,0-4.278,3.972,12.222,12.222,0,0,0-4.889,2.994,56.956,56.956,0,0,1-6.478,5.622c-.733.428-1.283,1.1-2.2,1.1a32.756,32.756,0,0,0,1.283-7.7c0-2.689-1.528-3.728-4.094-2.689a7.272,7.272,0,0,0-2.322,1.528,5.1,5.1,0,0,0-2.811,1.039,16.989,16.989,0,0,0-4.278,4.339,72.783,72.783,0,0,0-6.967,11.183c-.672,1.406-.856,1.467-2.383,1.039-4.95-1.406-9.839-2.872-14.605-4.705-2.628-1.039-5.255-2.078-7.761-3.361-.856-.428-1.833-.733-2.75-1.1a9.472,9.472,0,0,1-3.239-5.5c-1.467-4.644-2.689-9.35-4.4-13.872a18.639,18.639,0,0,0-4.217-7.394,5.317,5.317,0,0,0-2.811-1.222,2.311,2.311,0,0,0-2.017,1.344c-.489.733-.917.917-1.222,1.467a22.429,22.429,0,0,0-1.772,7.944,2.009,2.009,0,0,1-.306,1.344,17.6,17.6,0,0,1-5.805-8.25,27.317,27.317,0,0,0-3.239-6.722,4.094,4.094,0,0,0-4.644-1.894,1.406,1.406,0,0,0-1.344.55.55.55,0,0,1-.856,0,6.111,6.111,0,0,0-3.117-2.139,3.3,3.3,0,0,0-3.728,1.467,5.622,5.622,0,0,0-.367,2.017,1.833,1.833,0,0,1-.733,1.283,5.683,5.683,0,0,0-3.728,4.156c-.306.367,0,.856-.367,1.344s0,.672-.55.856a5.255,5.255,0,0,0-1.711,3.911c0,.856,0,1.65,0,2.506a20.838,20.838,0,0,0,0,7.028,35.261,35.261,0,0,0,7.089,15.033A108.84,108.84,0,0,0,61.1,121.682a105.283,105.283,0,0,0,8.067,6.783c.55.428,1.406.856,1.222,1.711s-1.1.672-1.711.856a95.389,95.389,0,0,1-14.972,2.933c-2.017,0-3.972.672-6.111.978a10.4,10.4,0,0,1-4.706-.367H40.446L38,134.271c-.733-.794-1.65-1.65-2.75-2.689a1.045,1.045,0,0,0-.367-.794,9.224,9.224,0,0,1-.55-1.1,84.943,84.943,0,0,1-8.067-20.533,64.043,64.043,0,0,1-2.2-13.628,1.039,1.039,0,0,0-.367-.978c-.489,0-.367-.856-.367-1.283a16.806,16.806,0,0,1,0-4.644c.55-2.506,0-5.133.672-7.7A26.279,26.279,0,0,0,24.5,77.01a51.207,51.207,0,0,1,1.1-5.317A56.221,56.221,0,0,1,30,60.144a39.294,39.294,0,0,1,4.889-7.333,50.848,50.848,0,0,1,3.85-4.217,54.51,54.51,0,0,1,7.822-6.355,65.138,65.138,0,0,1,6.111-2.872c1.222-.306,2.322-.978,3.544-1.344a10.636,10.636,0,0,1,1.344-.306,52.921,52.921,0,0,1,17.478-1.589,59.338,59.338,0,0,1,14.239,2.383,62.272,62.272,0,0,1,9.839,3.728,41.25,41.25,0,0,1,13.811,11.305c.856,1.1.917,1.161,1.833,0a50.661,50.661,0,0,1,16.5-11.305,33.244,33.244,0,0,1,13.505-3.056h0a9.044,9.044,0,0,0,3.117.306,36.666,36.666,0,0,1,15.278,3.972,4.278,4.278,0,0,0,2.078.917,20.714,20.714,0,0,0,2.567,2.017l.733.428a40.823,40.823,0,0,1,8.983,9.35,37.334,37.334,0,0,1,2.2,3.728h0a1.772,1.772,0,0,1,.856,1.222c.733,2.261,2.2,4.217,2.872,6.478a46.018,46.018,0,0,1,2.078,7.394l.733,5.072a30.884,30.884,0,0,0,.428,6.111A28.531,28.531,0,0,1,187.111,92.1Z" transform="translate(118.442 183.87)" fill="#eb3f17"/>
  <path id="Caminho_28" data-name="Caminho 28" d="M64.6,117.219a50.049,50.049,0,0,1-10.083-9.594,64.715,64.715,0,0,1-8.861-15.278,79.445,79.445,0,0,1-5.5-19.433.856.856,0,0,0-.794-.856,17.172,17.172,0,0,1-8.922-6.111A14.117,14.117,0,0,1,28.36,53.725a12.222,12.222,0,0,1,3.117-5.683,2.2,2.2,0,0,1,1.589-.672A82.194,82.194,0,0,0,70.832,38.2,134.443,134.443,0,0,0,99.249,18.77l6.111-5.5c.306,1.406.672,2.75,1.039,4.033A58.727,58.727,0,0,0,113.121,32.4a149.172,149.172,0,0,0,19.25,24.444,26.773,26.773,0,0,0,2.75,2.506,1.222,1.222,0,0,1,.428,1.161,119.593,119.593,0,0,1-10.817,37.216,57.932,57.932,0,0,1-13.017,18.333,36.666,36.666,0,0,1-11.733,7.211,2.383,2.383,0,0,1-1.528.733,37.278,37.278,0,0,1-18.883,0,44.183,44.183,0,0,1-13.628-5.561,4.583,4.583,0,0,1-1.344-1.222Z" transform="translate(142.016 67.824)" fill="#f7bca7"/>
  <path id="Caminho_29" data-name="Caminho 29" d="M128.07,62.377c0,.428-.367.367-.672.367A39.355,39.355,0,0,0,110.1,68,53.655,53.655,0,0,0,99.959,75.21a25.418,25.418,0,0,0-2.567,2.567c-.489.489-.733.55-1.222,0a37.644,37.644,0,0,0-9.228-8.922A53.472,53.472,0,0,0,73.8,62.438a63.86,63.86,0,0,0-13.689-2.994,56.833,56.833,0,0,0-19.005,1.772h-.55c0-1.344-.917-2.017-1.894-2.689a37.951,37.951,0,0,1-6.905-6.111c-1.528-1.65-2.933-3.422-4.339-5.133-.428-.489-.978-.917-.917-1.65a123.746,123.746,0,0,0,24.444-5.317,90.569,90.569,0,0,0,8.739-3.606,22.735,22.735,0,0,1,4.033.489,67.712,67.712,0,0,0,12.65.794,86.532,86.532,0,0,0,12.222-1.222A78.772,78.772,0,0,0,105.7,31.7c1.161-.489,1.222-.428,1.283.794a1.712,1.712,0,0,0,0,.55,30.556,30.556,0,0,0,3.055,14.178A29.517,29.517,0,0,0,120.37,58.649a41.74,41.74,0,0,0,7.7,3.728Z" transform="translate(135.439 160.555)" fill="#f7bca7"/>
  <path id="Caminho_30" data-name="Caminho 30" d="M80.34,49.5A8.067,8.067,0,0,1,76.8,50.84a20.105,20.105,0,0,0-7.15,2.567A51.09,51.09,0,0,0,59.2,59.518a44.059,44.059,0,0,0-6.111,7.517A61.11,61.11,0,0,0,45.813,80.54a35.444,35.444,0,0,0-2.994,13.933,17.723,17.723,0,0,0,1.222,6.906v.794a.856.856,0,0,1-.978,0,37.889,37.889,0,0,1-5.561-2.017,47.423,47.423,0,0,1-8.678-3.972,30.861,30.861,0,0,1-7.578-7.333c-.672-.917-1.344-1.772-2.628-1.711-.367-.733,0-1.406.306-2.078a6.111,6.111,0,0,1,1.528-3.178,18.334,18.334,0,0,0,.917-2.567,89.163,89.163,0,0,1,4.583-9.411,2.261,2.261,0,0,1,1.1-1.161c1.65-2.567,3.239-5.194,5.011-7.7a111.7,111.7,0,0,1,8.311-10.328,1.864,1.864,0,0,0,.55-.794c1.711-1.589,3.3-3.178,5.011-4.706A50.9,50.9,0,0,1,61.457,35.073a18.333,18.333,0,0,1,4.4-1.283c.428,0,.55,0,.672.428A36.178,36.178,0,0,0,72.64,42.59,42.166,42.166,0,0,0,78.751,48.4C79.362,48.823,79.973,48.945,80.34,49.5Z" transform="translate(94.375 172.703)" fill="#f6e20c"/>
  <path id="Caminho_31" data-name="Caminho 31" d="M44.247,83.355a23.162,23.162,0,0,1-.733-5.744,4.461,4.461,0,0,0-2.2-3.85A38.254,38.254,0,0,0,31.17,68.749a29.761,29.761,0,0,0-7.639-1.222,13.079,13.079,0,0,1-2.689-.489c-.306,0-.794,0-.794-.489s.489-.55.794-.733a10.328,10.328,0,0,1,4.522-.489,36.055,36.055,0,0,1,6.783,1.344,27.072,27.072,0,0,1,7.272,3.361,11.427,11.427,0,0,1,2.444,1.65s.367.367.55,0,0-.367,0-.55a41.494,41.494,0,0,0-.733-5.439c-.672-4.644-1.589-9.228-2.567-13.811-.611-2.994-1.467-6.111-2.2-8.922,0-.611-.672-1.039-1.039-1.467a32.694,32.694,0,0,0-9.35-7.517,24.078,24.078,0,0,0-6.783-1.467c-.733,0-1.65,0-1.833-.794s.794-.978,1.406-1.161a9.839,9.839,0,0,1,6.111.367,19.433,19.433,0,0,1,8.311,5.317,8.8,8.8,0,0,0,1.711,1.65,14.362,14.362,0,0,0-.856-4.033c-.856-3.117-1.772-6.111-2.811-9.289L30.5,20.716a7.029,7.029,0,0,1-.367-1.039c0-.489,0-.978.489-1.161a.733.733,0,0,1,.978.611,28.172,28.172,0,0,0,1.344,3.117c.856,2.322,1.65,4.644,2.444,7.028.306.733.672.672.978,0a18.332,18.332,0,0,1,1.894-2.444,10.205,10.205,0,0,1,5.011-3.544s.611-.306.856,0a.794.794,0,0,1-.306.856c-.856.856-1.65,1.711-2.506,2.506a61.111,61.111,0,0,0-4.278,4.644,1.467,1.467,0,0,0-.306,1.589c.856,2.628,1.833,5.256,2.506,7.944s1.711,6.111,2.322,9.472c0,1.283.794,2.444.917,3.728,0,0,0,.489.306.489s.367,0,.489-.428a68.321,68.321,0,0,1,8.311-9.533,9.289,9.289,0,0,1,4.461-2.811v1.528a6.783,6.783,0,0,1-2.261,2.811,107.919,107.919,0,0,0-8.617,9.655,4.583,4.583,0,0,0-1.1,4.4c.856,4.339,1.65,8.739,2.139,13.2a7.761,7.761,0,0,1,0,3.544,40.819,40.819,0,0,0-1.956,6.478Z" transform="translate(91.418 94.416)" fill="#8cea01"/>
  <path id="Caminho_32" data-name="Caminho 32" d="M78.627,38.631c-.367-.428,0-.978-.306-1.406a79.443,79.443,0,0,1-22.244,6.111,75.96,75.96,0,0,1-12.894.611A87.451,87.451,0,0,1,32,42.542h0A45.166,45.166,0,0,0,36.889,39.3a21.817,21.817,0,0,0,6.6-8.983c.978,0,1.65,1.161,2.567,1.65a68.567,68.567,0,0,0,7.761,3.544A44.611,44.611,0,0,0,70.072,38.02a37.156,37.156,0,0,0,8.983-1.772Z" transform="translate(163.554 154.967)" fill="#f29679"/>
  <path id="Caminho_33" data-name="Caminho 33" d="M25.1,56.221c-.367-2.811-.672-5.683-1.222-8.494s-.794-5.256-1.222-7.883a14.484,14.484,0,0,0-.55-2.2,1.222,1.222,0,0,1,.306-1.283c1.956-2.322,3.789-4.706,5.805-6.967s3.3-3.422,4.95-5.072l1.589-1.711A69.114,69.114,0,0,1,33.352,34.4a77.121,77.121,0,0,1-7.272,19.922Z" transform="translate(112.641 115.561)" fill="#3dd40b"/>
  <path id="Caminho_34" data-name="Caminho 34" d="M40.754,49.679a8.922,8.922,0,0,1-3.606-2.2,58.666,58.666,0,0,1-7.883-8.617,15.155,15.155,0,0,1-2.689-4.339.428.428,0,0,0-.367-.367,2.322,2.322,0,0,1,1.711-.367A88.181,88.181,0,0,0,38.554,45.523,12.771,12.771,0,0,0,41.121,47.3a1.711,1.711,0,0,1,.856,2.322C41.671,49.8,41.182,49.679,40.754,49.679Z" transform="translate(133.961 172.519)" fill="#d6bc03"/>
  <path id="Caminho_35" data-name="Caminho 35" d="M59.4,117.782a20.779,20.779,0,0,0-.55-7.761A52.675,52.675,0,0,0,55.485,99.51c-.978-2.567-1.894-5.194-2.933-7.761s-2.444-6.111-3.544-8.983A30.982,30.982,0,0,1,47.48,76.1c0-.367,0-.917.367-1.039s.55,0,.794.611A34.039,34.039,0,0,1,52.858,82.7c1.039,2.261,1.833,4.644,2.75,6.967,1.467,3.789,2.994,7.517,4.278,11.305.55,1.589,1.161,3.117,1.65,4.644a31.3,31.3,0,0,0,1.161-4.094c.856-2.994,1.344-6.111,2.2-9.044.611-1.956,1.039-3.972,1.589-6.111q1.833-6.111,3.85-12.65l2.75-8.25a4,4,0,0,0-.489-3.117c-.917-3.728-1.894-7.517-3.117-11.183-.917-2.628-1.894-5.256-2.872-7.883a10.084,10.084,0,0,1-.856-4.4c0-.306,0-.611.367-.733a1.722,1.722,0,0,1,.794,0,11.366,11.366,0,0,1,2.994,5.011c.856,2.261,1.65,4.522,2.322,6.783s1.65,4.889,2.139,7.394c0,.611,0,1.589.672,1.65s.55-.917.733-1.406c1.833-4.644,3.606-9.289,5.439-13.872,1.039-2.506,2.322-4.95,3.3-7.455a99.553,99.553,0,0,1,4.278-9.35l.611-1.039a1.222,1.222,0,0,1,1.528-.489,1.1,1.1,0,0,1,.55,1.589c-.856,2.139-1.589,4.4-2.567,6.478s-2.322,5.622-3.606,8.311c-.489,1.1-.489,2.383-1.1,3.483L86.285,43.9a42.777,42.777,0,0,1,8.983-4.828,9.166,9.166,0,0,1,3.422-.611,1.344,1.344,0,0,1,1.344.917c0,.611,0,.917-.611,1.283a9.839,9.839,0,0,1-2.689,1.283,56.4,56.4,0,0,0-11.611,6.111,13.872,13.872,0,0,0-5.194,8.005c-1.528,5.011-3.3,9.961-4.767,14.972C73.941,75,72.719,79.038,71.68,83.255a19.065,19.065,0,0,0-1.1,4.278,2.872,2.872,0,0,0,1.467-.794,70.461,70.461,0,0,1,14.544-8.189,10.328,10.328,0,0,1,5.561-1.406c.489,0,1.039,0,1.222.489a1.344,1.344,0,0,1-.428,1.406,7.761,7.761,0,0,1-2.078,1.406c-2.933,1.406-6.111,2.628-8.8,4.156a94.843,94.843,0,0,0-12.222,7.944,1.711,1.711,0,0,0-.672,1.1c-.55,2.567-1.222,5.133-1.772,7.761-1.039,4.828-2.139,9.656-3.056,14.483-.367,2.078-.55,4.094-1.039,6.111,0,.367,0,.367-.428,0s-1.65-2.078-2.506-3.056S59.274,118.516,59.4,117.782Z" transform="translate(242.673 129.226)" fill="#8cea01"/>
  <path id="Caminho_36" data-name="Caminho 36" d="M51.81,75.107c0-4.278.733-8.555.733-12.833a52.605,52.605,0,0,0,0-6.111,88.556,88.556,0,0,0-1.406-8.983,18.822,18.822,0,0,0-1.589-5.072,2.566,2.566,0,0,1,0-.978c.672,0,.917,0,1.222.672a41.31,41.31,0,0,1,5.194,8.067A21.816,21.816,0,0,1,57.983,58a57.318,57.318,0,0,1,0,11.672c0,.367,0,.733,0,1.161a18.33,18.33,0,0,0,2.994-1.772,1.955,1.955,0,0,1,2.322,0c.794.917.367,1.956-.917,2.628L59.388,73.4c-1.528.672-2.994,1.467-4.583,2.017S52.544,76.085,51.81,75.107Z" transform="translate(253.009 210.218)" fill="#d6bc03"/>
  <path id="Caminho_37" data-name="Caminho 37" d="M50.44,55.873c0-.794.856-1.161,1.344-1.65a68.445,68.445,0,0,1,11.489-8.555,60.623,60.623,0,0,1,11.672-5.194,2.2,2.2,0,0,0,.855-.611,1.589,1.589,0,0,1,1.894-.428,1.956,1.956,0,0,1,1.1,1.528,2.322,2.322,0,0,1-1.589,2.689c-2.383.917-4.828,1.772-7.272,2.811a61.106,61.106,0,0,0-6.844,3.606,65.878,65.878,0,0,0-9.839,7.578c-.428.367-.55,1.1-1.283,1.1a4.217,4.217,0,0,1-1.528-2.872Z" transform="translate(257.802 200.791)" fill="#8cea01"/>
  <path id="Caminho_38" data-name="Caminho 38" d="M58.311,53.3l1.528,2.872c0,1.1.794,1.711,1.1,2.628A79.437,79.437,0,0,1,64.3,68.512a27.987,27.987,0,0,1,1.222,6.111c0,.428.489.55.428.978a3.483,3.483,0,0,0-2.75.794c-.733.611-1.65,1.039-2.444,1.589s-.428.306-.611,0,0,0,0-.489a53.534,53.534,0,0,0,.55-10.817,25.422,25.422,0,0,0-1.467-8.555,39.548,39.548,0,0,0-2.689-5.011A42.1,42.1,0,0,0,52.872,48.1a.55.55,0,0,0-.489,0A9.045,9.045,0,0,1,51.1,45.412c-.794-1.589-1.467-3.178-2.2-4.828V39.79l3.239,4.094,3.3,4.644Z" transform="translate(249.931 203.369)" fill="#f6e20c"/>
  <path id="Caminho_39" data-name="Caminho 39" d="M60.217,102.094a20.045,20.045,0,0,0-1.711,5.317,24.445,24.445,0,0,0,7.944,10.144s.55.428.55.794a8.495,8.495,0,0,0,.856,2.933c.611,1.528,1.039,3.056,1.589,4.644v12.222c0,1.344.733,2.444.428,3.728a4.767,4.767,0,0,1-1.039-2.078c-.306-1.528-1.039-2.872-1.283-4.4s-1.467-2.139-2.444-2.933A65.449,65.449,0,0,0,54.29,125.01,61.115,61.115,0,0,0,43.6,120.488a75.842,75.842,0,0,0-11.55-2.322,2.811,2.811,0,0,1-2.139-3.239c0-.794,1.772-1.589,2.444-1.1a6.967,6.967,0,0,0,3.728.978,65.939,65.939,0,0,1,13.505,4.033,56.467,56.467,0,0,1,12.222,7.028,26.212,26.212,0,0,0,2.933,2.2,2.919,2.919,0,0,0-.55-2.139c-.672-1.956-1.406-3.911-2.139-5.806-1.222-3.178-2.383-6.111-3.667-9.472S55.756,103.8,54.229,100.5s-2.383-5.256-3.544-7.883a1.528,1.528,0,0,0-.733-.794A87.7,87.7,0,0,0,31.618,85.1a30.922,30.922,0,0,1-6.111-1.711c-.733-.306-1.772-.672-1.589-1.589s1.222-1.039,2.139-1.039a24.445,24.445,0,0,1,6.967,1.1,67.222,67.222,0,0,1,14.055,5.256s.489.367.794,0,0-.489,0-.672c-2.444-5.561-5.255-10.939-8.067-16.255-1.711-3.178-3.422-6.111-5.256-9.472a57.145,57.145,0,0,1-3.361-6.111A6.478,6.478,0,0,0,28.2,51.983a44.243,44.243,0,0,0-12.222-4.461l-3.361-.611-1.344-.489a1.161,1.161,0,0,1-.55-1.283c0-.611.367-.733.794-.856a9.472,9.472,0,0,1,4.889,0A42.778,42.778,0,0,1,25.812,47.4h.55s.489.794.856,0,0-.611-.428-.917L18.112,34.139a17.66,17.66,0,0,1-1.65-2.689c0-.55-.367-.978,0-1.406a1.222,1.222,0,0,1,1.528,0,2.749,2.749,0,0,1,.794.611c2.872,3.789,5.622,7.639,8.189,11.611,1.772,2.75,3.667,5.439,5.439,8.25s2.933,4.644,4.278,7.028a13.385,13.385,0,0,1,1.589,2.506s0,.367.367,0,0,0,0-.428a23.282,23.282,0,0,1,0-3.606c.306-2.872.428-5.744.978-8.617s.733-4.339,1.161-6.539a6.539,6.539,0,0,1,1.467-2.994.672.672,0,0,1,.733-.306c.367,0,.428.367.489.672a10.817,10.817,0,0,1,0,4.644c-.733,4.094-1.344,8.189-1.711,12.222-.306,3.056-.367,6.111-.794,9.228a4.9,4.9,0,0,0,1.039,2.444c1.956,3.361,3.85,6.783,5.683,10.205.856,1.65,1.833,3.361,2.689,5.072s1.833,3.911,2.811,6.111c1.528,2.933,2.75,6.111,4.217,8.983.611,1.344,1.283,2.75,1.772,4.156C59.729,101.544,59.667,102.032,60.217,102.094Z" transform="translate(54.609 152.187)" fill="#3dd40b"/>
  <path id="Caminho_40" data-name="Caminho 40" d="M24.623,55.108c-1.589,2.383-2.75,5.072-4.156,7.578-.428.794-1.222,1.589-1.161,2.628s0,0-.367.367c.55-4.889,1.589-9.594,2.444-14.422a48.339,48.339,0,0,1,3.667-13.383,8.679,8.679,0,0,1,.489-1.1.611.611,0,0,1,.672-.367.55.55,0,0,1,.367.611,53.84,53.84,0,0,1,0,5.439c-.306,4.094-1.467,8.005-2.078,12.222a.8.8,0,0,0,.122.428Z" transform="translate(96.803 186.034)" fill="#3dd40b"/>
  <path id="Caminho_41" data-name="Caminho 41" d="M116.192,59.4a69.234,69.234,0,0,1-6.111,6.111c-2.444,2.383-5.072,4.583-7.7,6.783S95.415,78.1,91.748,80.73,85.026,85.557,81.421,87.7l-3.3,2.139c-1.772,1.039-3.483,2.322-5.317,3.3a1.5,1.5,0,0,1-1.894-.489c-5.378-2.994-10.572-6.111-15.705-9.655-2.994-2.017-6.111-4.156-8.922-6.111a34.1,34.1,0,0,1-3.361-2.689c-1.406-1.161-2.933-2.2-4.4-3.361l-4.339-3.667L30.21,63.741a6.539,6.539,0,0,1,2.628-.367A15.706,15.706,0,0,0,41.393,65.7,47.178,47.178,0,0,0,60.7,63.008a93.933,93.933,0,0,0,13.2-5.194,12.222,12.222,0,0,1,7.883-1.039c7.089,1.467,14.239,3.117,21.45,3.972a35.508,35.508,0,0,0,4.4,0,7.883,7.883,0,0,0,5.683-1.833Z" transform="translate(154.405 288.928)" fill="#eb3f17"/>
  <path id="Caminho_42" data-name="Caminho 42" d="M111.306,66.406c-.489,1.467-1.894,1.65-3.056,1.894a20.473,20.473,0,0,1-7.211,0c-5.5-.55-10.939-1.833-16.378-2.872-2.078-.428-4.094-.794-6.111-1.283a8.372,8.372,0,0,0-4.706.55c-2.078.672-3.911,1.833-6.111,2.628a89.653,89.653,0,0,1-17.661,5.5,36.666,36.666,0,0,1-13.689,0,14.483,14.483,0,0,1-4.828-1.283,1.046,1.046,0,0,1-.917-.978c2.139-.55,4.278-.794,6.111-1.222a144.4,144.4,0,0,0,18.333-5.072,218.535,218.535,0,0,0,20.839-8.433c.428,0,.794-.672,1.344-.672a1.528,1.528,0,0,1,1.344.672A100.649,100.649,0,0,0,111.306,66.406Z" transform="translate(156.603 281.924)" fill="#9e2408"/>
  <path id="Caminho_43" data-name="Caminho 43" d="M31.728,91.555a25.6,25.6,0,0,1,6.111-1.283,97.413,97.413,0,0,0,11.917-2.2l3.789-1.039c.794,0,.672-.55,0-.917L51.1,84.039A102.911,102.911,0,0,1,36.433,69.983a48.886,48.886,0,0,1-5.317-6.967,29.517,29.517,0,0,1-4.278-10.205,23.1,23.1,0,0,1-.489-3.422,9.6,9.6,0,0,1,.733-4.889,23.65,23.65,0,0,0,3.544,9.167A51.333,51.333,0,0,0,41.383,66.439c5.133,4.706,10.328,9.289,15.828,13.567,3.178,2.444,6.111,4.95,9.289,7.455,0,0,.856.489.794.856s-.611,0-.978.367c-5.5,1.039-11.061,1.894-16.561,2.567a96.739,96.739,0,0,1-13.933.672Z" transform="translate(134.371 227.442)" fill="#9e2408"/>
  <path id="Caminho_44" data-name="Caminho 44" d="M26.764,83.637l-3.117-2.994a21.51,21.51,0,0,1-5.011-6.661,2.017,2.017,0,0,1,0-1.344c.733-.733,1.283,0,1.772.306s2.2,2.933,3.483,4.217a38.193,38.193,0,0,0,9.778,7.272,56.282,56.282,0,0,0,9.35,3.728h.367a13.872,13.872,0,0,1-1.161-3.728,25.972,25.972,0,0,1,0-9.472,55.978,55.978,0,0,1,5.256-14.422A70.033,70.033,0,0,1,54.019,50.21a27.744,27.744,0,0,1,10.328-8.8c2.078-1.039,4.033-2.383,6.111-3.3a10.45,10.45,0,0,1,5.683-1.528.482.482,0,0,1-.367.428,40.211,40.211,0,0,0-10.389,6.111,32.145,32.145,0,0,0-4.95,4.583,56.712,56.712,0,0,0-5.561,7.639,53.35,53.35,0,0,0-4.156,9.105,41.127,41.127,0,0,0-1.956,7.272c-.306,2.017-.55,4.033-.917,6.111s0,3.911-.428,6.111a55.486,55.486,0,0,0,0,7.822,2.933,2.933,0,0,1-3.056.428,58.913,58.913,0,0,1-13.689-5.5h0a18.334,18.334,0,0,1-3.728-2.383Z" transform="translate(94.662 186.96)" fill="#c9d40b"/>
  <path id="Caminho_45" data-name="Caminho 45" d="M34.63,54.653a4.583,4.583,0,0,1,2.811.794A100.47,100.47,0,0,0,48.38,59.969c3.911,1.406,7.944,2.444,11.917,3.728.672,0,1.039,0,1.344-.55a66.794,66.794,0,0,1,7.333-11.794A14.789,14.789,0,0,1,75.085,46.1c.489,0,.978-.611,1.344,0a30.982,30.982,0,0,0-5.072,7.15c-2.2,3.972-4.033,8.128-6.111,12.222a14.543,14.543,0,0,1-2.383,3.667c-.55.794-1.161.489-1.711,0a146.112,146.112,0,0,1-13.994-6.6A64.226,64.226,0,0,1,34.63,54.653Z" transform="translate(176.996 234.217)" fill="#9e2408"/>
  <path id="Caminho_46" data-name="Caminho 46" d="M62.355,48.38c.978.672.489,1.65.367,2.383A28.416,28.416,0,0,1,55.45,66.285a18.9,18.9,0,0,0-1.406,1.894A49.314,49.314,0,0,1,45,67.446,44.428,44.428,0,0,0,62.355,48.38Z" transform="translate(229.997 247.273)" fill="#9e2408"/>
  <path id="Caminho_47" data-name="Caminho 47" d="M39.684,73.784a4.643,4.643,0,0,1-1.344-.672c.672-1.467,2.2-1.772,3.483-2.383,4.644-2.383,9.35-4.644,13.994-7.15,3.728-2.078,7.455-4.156,11.122-6.111s5.806-3.606,8.678-5.439c.611-.428,1.222-.611,1.711,0s0,1.222-.489,1.589c-1.528,1.1-3.056,2.2-4.706,3.178L68.1,59.178c-2.322,1.528-4.767,2.872-7.211,4.217-3.605,1.956-7.211,3.911-10.939,5.622a75.1,75.1,0,0,1-9.594,4.278C39.99,73.173,39.684,73.295,39.684,73.784Z" transform="translate(195.958 263.913)" fill="#f0977c"/>
  <path id="Caminho_48" data-name="Caminho 48" d="M68.209,49.64a1.894,1.894,0,0,0,1.711,0c.367,1.711,0,2.139-1.406,2.933-2.872,1.222-5.683,2.506-8.617,3.544s-3.972,1.589-6.111,2.2A102.908,102.908,0,0,1,39,62.107a16.07,16.07,0,0,1-4.522.55c-.489,0-1.222,0-1.283-.611s.672-.794,1.161-.917l8.005-1.772c2.628-.611,5.256-1.283,7.883-2.078A125.388,125.388,0,0,0,64.115,51.84l3.728-1.833S68.7,50.068,68.209,49.64Z" transform="translate(169.633 253.713)" fill="#f0977c"/>
  <path id="Caminho_49" data-name="Caminho 49" d="M43.241,55.62A47.97,47.97,0,0,0,52.1,48.348,16.134,16.134,0,0,1,56.2,45.72h.611c-1.283,1.894-2.2,3.911-3.667,5.683a29.944,29.944,0,0,1-10.205,8.25H42.08A32.271,32.271,0,0,1,43.241,55.62Z" transform="translate(215.073 233.677)" fill="#9e2408"/>
  <path id="Caminho_50" data-name="Caminho 50" d="M47,54.065a6.111,6.111,0,0,1,4.4-1.956,33.011,33.011,0,0,0,4.217-.489,36.671,36.671,0,0,1,6.111-.428,5.011,5.011,0,0,1,1.894.428c.856.428.917.794,0,1.406a8.127,8.127,0,0,1-4.4,1.222,57.629,57.629,0,0,0-9.167.489A20.658,20.658,0,0,1,47,54.065Z" transform="translate(240.219 261.632)" fill="#f1977a"/>
  <path id="Caminho_51" data-name="Caminho 51" d="M60.289,46.9a6.539,6.539,0,0,1-.917,2.506,48.886,48.886,0,0,1-4.094,6.906A50.356,50.356,0,0,1,46.539,65.6h-.367c-.489,0-.978.611-1.406,0s0-.917.489-1.283A64.717,64.717,0,0,0,50.756,59a46.018,46.018,0,0,0,6.111-8.128,44.5,44.5,0,0,0,2.444-4.339.669.669,0,0,1,.794-.611C60.533,46.04,60.289,46.529,60.289,46.9Z" transform="translate(227.908 234.579)" fill="#f0977d"/>
  <path id="Caminho_52" data-name="Caminho 52" d="M59.252,46.227a8.188,8.188,0,0,1-.978,2.75A33.489,33.489,0,0,1,51.186,59.3a31.715,31.715,0,0,1-6.111,5.072,1.039,1.039,0,0,1-1.65-.428.672.672,0,0,1,.306-1.039,14.239,14.239,0,0,0,4.583-3.239,40.638,40.638,0,0,0,7.211-8.617,49.247,49.247,0,0,0,2.567-5.072s0-.672.55-.55A.733.733,0,0,1,59.252,46.227Z" transform="translate(221.245 232.132)" fill="#f0987d"/>
  <path id="Caminho_53" data-name="Caminho 53" d="M58.32,46.65a11.244,11.244,0,0,0,.856,3.117c-.489-.489-.55,0-.672,0a19.006,19.006,0,0,1-1.222,3.728,31.9,31.9,0,0,1-5.072,8.128,30.551,30.551,0,0,1-4.889,4.889,2.138,2.138,0,0,1-.856.367.672.672,0,0,1-.794,0v-.733c1.161-1.528,2.811-2.506,4.033-3.911a34.835,34.835,0,0,0,4.522-6.111A64.53,64.53,0,0,0,57.4,49.583a8.005,8.005,0,0,0,.917-2.933Z" transform="translate(233.422 238.431)" fill="#f1977e"/>
  <path id="Caminho_54" data-name="Caminho 54" d="M26.831,45.29V44.007c0-.428,0-.856.611-.917a40.516,40.516,0,0,0,2.689,10.022A25.178,25.178,0,0,0,36.853,64.3a7.944,7.944,0,0,1,1.956,1.833s.306.367,0,.611-.428,0-.611,0a7.944,7.944,0,0,1-3.3-2.322,27.255,27.255,0,0,1-5.5-9.228c-1.039-2.933-1.833-6.111-2.628-8.922a1.467,1.467,0,0,0,.061-.978Z" transform="translate(136.823 220.235)" fill="#ee987e"/>
  <path id="Caminho_55" data-name="Caminho 55" d="M28.993,42a1.345,1.345,0,0,0,.978,0,27.317,27.317,0,0,0,2.261,10.511A34.955,34.955,0,0,0,38.343,62.9c.489.55,1.283.856,1.039,1.894a5.5,5.5,0,0,1-2.811-2.017A28.9,28.9,0,0,1,31.8,54.894,30.555,30.555,0,0,1,28.81,43.772,10.084,10.084,0,0,1,28.993,42Z" transform="translate(147.249 214.664)" fill="#ef987f"/>
  <path id="Caminho_56" data-name="Caminho 56" d="M27.54,45.17a9.349,9.349,0,0,0,.611-2.506c0-.367,0-.672.489-.794A27.989,27.989,0,0,0,31.39,53.6a55.854,55.854,0,0,0,6.783,11.122h0c0,.489.856.978,0,1.406s-.917,0-1.222-.55A49.439,49.439,0,0,1,31.7,57.209a65.751,65.751,0,0,1-3.117-7.089,17.234,17.234,0,0,1-.917-4.278C27.968,45.659,28.09,45.231,27.54,45.17Z" transform="translate(140.758 214)" fill="#ef987e"/>
  <path id="Caminho_57" data-name="Caminho 57" d="M31.371,53.706a21.327,21.327,0,0,1,1.956-9.717,1.027,1.027,0,0,1,1.344-1.039,20.6,20.6,0,0,0-.367,6.967,45.407,45.407,0,0,0,.55,4.95c.183,1.65,0,.917-.856.55A10.818,10.818,0,0,1,31.371,53.706Z" transform="translate(160.271 219.275)" fill="#e74d4d"/>
  <path id="Caminho_58" data-name="Caminho 58" d="M20.022,44.28l3.789,2.628c-.55,0-.794,0-.978.794a30.133,30.133,0,0,0,0,4.094c-.611,0-.489-.733-.611-1.039-.672-2.139-1.528-4.155-2.261-6.111C19.716,44.341,19.9,44.28,20.022,44.28Z" transform="translate(101.405 226.317)" fill="#dce1c1"/>
  <path id="Caminho_59" data-name="Caminho 59" d="M64.558,60.9c-1.039,0-2.383-1.161-3.3-2.872A32.144,32.144,0,0,0,50.2,46.359,30.064,30.064,0,0,1,46.1,43.242c-.856-.856-1.65-1.833-1.222-3.117A3.422,3.422,0,0,1,48,38.109a13.933,13.933,0,0,1,10.755,3.667,42.778,42.778,0,0,1,8.861,9.594,9.411,9.411,0,0,1,2.261,5.439C69.446,59.375,67.8,60.964,64.558,60.9Z" transform="translate(228.773 194.478)" fill="#ff8d76"/>
  <path id="Caminho_60" data-name="Caminho 60" d="M48.136,50.249a45.223,45.223,0,0,1,.489-4.95,2.689,2.689,0,0,1,2.017-2.444,3.3,3.3,0,0,1,2.811,1.283,7.944,7.944,0,0,1,.794,8.494,3.239,3.239,0,0,1-3.789,1.589,3.056,3.056,0,0,1-2.322-3.178Z" transform="translate(245.989 219.004)" fill="#ff8d76"/>
  <path id="Caminho_61" data-name="Caminho 61" d="M49.277,34.284a7.639,7.639,0,0,1-6.906-3.3A4.583,4.583,0,0,1,44.2,24.873a6.111,6.111,0,0,1,3.483-.733A16.194,16.194,0,0,1,51.843,25a5.194,5.194,0,0,1,3.178,6.111,4.828,4.828,0,0,1-4.339,3.422Z" transform="translate(213.927 123.259)" fill="#ed6562"/>
  <path id="Caminho_62" data-name="Caminho 62" d="M42.738,28.12a3.85,3.85,0,0,1-3.606,4.644,6.417,6.417,0,0,1-5.744-1.956,5.133,5.133,0,0,1,.611-7.7,6.478,6.478,0,0,1,8.372,2.506C42.738,26.348,42.738,26.348,42.738,28.12Z" transform="translate(163.204 114.817)" fill="#ed6562"/>
  <path id="Caminho_63" data-name="Caminho 63" d="M43.247,30.328a9.778,9.778,0,0,1-8.311-4.583,20.286,20.286,0,0,1-1.772-3.667,1.222,1.222,0,0,1,.428-1.65c.672-.428,1.161,0,1.65.428a9.96,9.96,0,0,1,1.467,2.322,6.905,6.905,0,0,0,10.633,2.017,10.266,10.266,0,0,0,1.467-1.772,1.907,1.907,0,1,1,3.117,2.2,10.511,10.511,0,0,1-8.678,4.706Z" transform="translate(168.684 103.504)" fill="#7a2d2d"/>
  <path id="Caminho_64" data-name="Caminho 64" d="M49.386,31.29a8.861,8.861,0,0,1-8.739-6.844,5.255,5.255,0,0,1,0-1.956,1.032,1.032,0,0,1,.978-1.1,1.222,1.222,0,0,1,1.344.856c.306.611.55,1.283.856,1.894a6.111,6.111,0,0,0,10.083,1.589,6.968,6.968,0,0,1,.978-.917,1.955,1.955,0,0,1,2.261,0,1.711,1.711,0,0,1,.611,2.017,3.239,3.239,0,0,1-1.1,1.589,10.939,10.939,0,0,1-7.272,2.872Z" transform="translate(207.279 109.264)" fill="#7a2d2d"/>
  <path id="Caminho_65" data-name="Caminho 65" d="M36.964,27.494a6.844,6.844,0,0,1-2.017,5.5,3.117,3.117,0,0,1-3.239.55A2.567,2.567,0,0,1,30.12,31.1a12.772,12.772,0,0,1,.978-6.111,4.155,4.155,0,0,1,1.711-1.833c.367,0,.367-.306,0-.672a2.139,2.139,0,0,0-2.994-1.161c-.306,0-.733.489-.978,0a1.039,1.039,0,0,1,0-1.222,3.667,3.667,0,0,1,3.85-.489,7.211,7.211,0,0,1,4.278,6.783Z" transform="translate(146.368 98.516)" fill="#f29679"/>
  <path id="Caminho_66" data-name="Caminho 66" d="M44.933,33.2A9.533,9.533,0,0,1,36.5,27.879a3.975,3.975,0,0,0,0-.794v-1.1a.978.978,0,0,1,1.161.367,26.761,26.761,0,0,0,2.75,2.506,7.455,7.455,0,0,0,9.167-.672,14.905,14.905,0,0,1,1.406-1.344,1.405,1.405,0,0,1,1.711-.367,1.589,1.589,0,0,1,.794,1.589,2.567,2.567,0,0,1-.55,1.467A10.694,10.694,0,0,1,44.933,33.2Z" transform="translate(186.553 132.475)" fill="#f1967a"/>
  <path id="Caminho_67" data-name="Caminho 67" d="M39.011,18.307a8.128,8.128,0,0,1,5.5,1.711,2.322,2.322,0,0,1,.672,3.117,2.2,2.2,0,0,1-3.117,0,6.111,6.111,0,0,0-5.256-.794,4.277,4.277,0,0,1-.856,0,2.2,2.2,0,0,1-1.772-.489,1.711,1.711,0,0,1,.428-1.894,5.194,5.194,0,0,1,4.4-1.65Z" transform="translate(174.082 93.403)" fill="#7a2d2d"/>
  <path id="Caminho_68" data-name="Caminho 68" d="M52.128,23.714a2.322,2.322,0,0,1-1.161,1.833,1.65,1.65,0,0,1-2.017-.306,5.5,5.5,0,0,0-5.072-1.772H43.45c-.856,0-1.833,0-2.017-1.039s.55-1.589,1.406-2.078a7.761,7.761,0,0,1,8.494,1.894,2.689,2.689,0,0,1,.794,1.467Z" transform="translate(211.625 101.257)" fill="#7a2d2d"/>
  <path id="Caminho_69" data-name="Caminho 69" d="M42.055,28.427a5.439,5.439,0,0,1-4.522-2.567c0-.489-.733-1.1,0-1.589s1.1,0,1.589,0a5.5,5.5,0,0,0,4.461.672h1.161a1.589,1.589,0,0,1,1.956.672,1.528,1.528,0,0,1-.55,1.956A5.378,5.378,0,0,1,42.055,28.427Z" transform="translate(190.165 122.944)" fill="#f1977b"/>
</svg>
